Merritest-Bold.ufo
<glyph name="exclam" format="1">
  <advance width="767"/>
  <unicode hex="0021"/>
  <outline>
    <contour>
      <point x="298" y="534" type="line"/>
      <point x="188" y="1780" type="line"/>
      <point x="570" y="1780" type="line"/>
      <point x="452" y="534" type="line"/>
    </contour>
    <contour>
      <point x="195" y="131" type="curve" smooth="yes"/>
      <point x="195" y="240"/>
      <point x="301" y="323"/>
      <point x="394" y="323" type="curve" smooth="yes"/>
      <point x="512" y="323"/>
      <point x="566" y="249"/>
      <point x="566" y="159" type="curve" smooth="yes"/>
      <point x="566" y="44"/>
      <point x="464" y="-28"/>
      <point x="364" y="-28" type="curve" smooth="yes"/>
      <point x="279" y="-28"/>
      <point x="195" y="30"/>
    </contour>
  </outline>
</glyph>
<glyph name="ampersand" format="1">
  <advance width="1582"/>
  <unicode hex="0026"/>
  <outline>
    <contour>
      <point x="128" y="378" type="curve" smooth="yes"/>
      <point x="128" y="578"/>
      <point x="272" y="683"/>
      <point x="456" y="768" type="curve"/>
      <point x="370" y="885"/>
      <point x="277" y="1013"/>
      <point x="280" y="1166" type="curve" smooth="yes"/>
      <point x="284" y="1424"/>
      <point x="498" y="1557"/>
      <point x="715" y="1557" type="curve" smooth="yes"/>
      <point x="961" y="1557"/>
      <point x="1118" y="1412"/>
      <point x="1118" y="1220" type="curve" smooth="yes"/>
      <point x="1118" y="1029"/>
      <point x="960" y="867"/>
      <point x="776" y="770" type="curve"/>
      <point x="875" y="643"/>
      <point x="1052" y="438"/>
      <point x="1146" y="344" type="curve" smooth="yes"/>
      <point x="1152" y="338" type="line"/>
      <point x="1166" y="394"/>
      <point x="1165" y="454"/>
      <point x="1165" y="504" type="curve" smooth="yes"/>
      <point x="1165" y="635"/>
      <point x="1140" y="715"/>
      <point x="1127" y="738" type="curve"/>
      <point x="1385" y="738" type="line"/>
      <point x="1398" y="712"/>
      <point x="1419" y="663"/>
      <point x="1419" y="554" type="curve" smooth="yes"/>
      <point x="1419" y="445"/>
      <point x="1380" y="311"/>
      <point x="1298" y="212" type="curve"/>
      <point x="1371" y="162"/>
      <point x="1439" y="134"/>
      <point x="1502" y="130" type="curve"/>
      <point x="1502" y="14" type="line"/>
      <point x="1456" y="-6"/>
      <point x="1387" y="-12"/>
      <point x="1316" y="-5" type="curve"/>
      <point x="1250" y="3"/>
      <point x="1184" y="22"/>
      <point x="1107" y="64" type="curve"/>
      <point x="1012" y="4"/>
      <point x="885" y="-30"/>
      <point x="740" y="-30" type="curve" smooth="yes"/>
      <point x="409" y="-30"/>
      <point x="128" y="85"/>
    </contour>
    <contour>
      <point x="696" y="875" type="curve"/>
      <point x="820" y="949"/>
      <point x="872" y="1059"/>
      <point x="872" y="1217" type="curve" smooth="yes"/>
      <point x="872" y="1310"/>
      <point x="834" y="1437"/>
      <point x="702" y="1437" type="curve" smooth="yes"/>
      <point x="634" y="1437"/>
      <point x="544" y="1396"/>
      <point x="534" y="1256" type="curve"/>
      <point x="520" y="1079"/>
      <point x="630" y="951"/>
    </contour>
    <contour>
      <point x="402" y="419" type="curve" smooth="yes"/>
      <point x="402" y="201"/>
      <point x="573" y="114"/>
      <point x="757" y="114" type="curve" smooth="yes"/>
      <point x="848" y="114"/>
      <point x="925" y="123"/>
      <point x="985" y="146" type="curve"/>
      <point x="854" y="256"/>
      <point x="659" y="487"/>
      <point x="542" y="649" type="curve"/>
      <point x="460" y="592"/>
      <point x="402" y="522"/>
    </contour>
  </outline>
</glyph>
<glyph name="quotesingle" format="1">
  <advance width="759"/>
  <unicode hex="0027"/>
  <outline>
    <contour>
      <point x="297" y="960" type="line"/>
      <point x="227" y="1782" type="line"/>
      <point x="532" y="1782" type="line"/>
      <point x="463" y="960" type="line"/>
    </contour>
  </outline>
</glyph>
<glyph name="parenleft" format="1">
  <advance width="925"/>
  <unicode hex="0028"/>
  <outline>
    <contour>
      <point x="140" y="718" type="curve" smooth="yes"/>
      <point x="140" y="1343"/>
      <point x="556" y="1707"/>
      <point x="652" y="1758" type="curve"/>
      <point x="771" y="1672" type="line"/>
      <point x="688" y="1616"/>
      <point x="427" y="1350"/>
      <point x="409" y="771" type="curve"/>
      <point x="392" y="184"/>
      <point x="691" y="-174"/>
      <point x="793" y="-246" type="curve"/>
      <point x="664" y="-338" type="line"/>
      <point x="567" y="-283"/>
      <point x="140" y="1"/>
    </contour>
  </outline>
</glyph>
<glyph name="asterisk" format="1">
  <advance width="1264"/>
  <unicode hex="002A"/>
  <outline>
    <contour>
      <point x="506" y="761" type="line"/>
      <point x="532" y="1093" type="line"/>
      <point x="578" y="1209" type="line"/>
      <point x="499" y="1115" type="line"/>
      <point x="236" y="901" type="line"/>
      <point x="107" y="1077" type="line"/>
      <point x="431" y="1250" type="line"/>
      <point x="544" y="1276" type="line"/>
      <point x="434" y="1298" type="line"/>
      <point x="105" y="1455" type="line"/>
      <point x="232" y="1645" type="line"/>
      <point x="498" y="1432" type="line"/>
      <point x="578" y="1344" type="line"/>
      <point x="532" y="1469" type="line"/>
      <point x="506" y="1793" type="line"/>
      <point x="532" y="1793"/>
      <point x="716" y="1792"/>
      <point x="743" y="1792" type="curve"/>
      <point x="717" y="1469" type="line"/>
      <point x="663" y="1344" type="line"/>
      <point x="754" y="1445" type="line"/>
      <point x="1012" y="1643" type="line"/>
      <point x="1159" y="1453" type="line"/>
      <point x="813" y="1302" type="line"/>
      <point x="697" y="1276" type="line"/>
      <point x="813" y="1248" type="line"/>
      <point x="1156" y="1075" type="line"/>
      <point x="1008" y="904" type="line"/>
      <point x="748" y="1116" type="line"/>
      <point x="665" y="1209" type="line"/>
      <point x="711" y="1093" type="line"/>
      <point x="743" y="761" type="line"/>
    </contour>
  </outline>
</glyph>
<glyph name="comma" format="1">
  <advance width="748"/>
  <unicode hex="002C"/>
  <outline>
    <contour>
      <point x="188" y="30" type="curve"/>
      <point x="188" y="95" type="line"/>
      <point x="352" y="304" type="line"/>
      <point x="525" y="249"/>
      <point x="596" y="73"/>
      <point x="594" y="-63" type="curve" smooth="yes"/>
      <point x="591" y="-327"/>
      <point x="403" y="-492"/>
      <point x="235" y="-554" type="curve"/>
      <point x="171" y="-488" type="line"/>
      <point x="171" y="-446" type="line"/>
      <point x="253" y="-415"/>
      <point x="346" y="-312"/>
      <point x="346" y="-167" type="curve" smooth="yes"/>
      <point x="346" y="-71"/>
      <point x="273" y="22"/>
    </contour>
  </outline>
</glyph>
<glyph name="hyphen" format="1">
  <advance width="1286"/>
  <unicode hex="002D"/>
  <outline>
    <contour>
      <point x="181" y="724" type="line"/>
      <point x="181" y="922" type="line"/>
      <point x="1105" y="922" type="line"/>
      <point x="1105" y="724" type="line"/>
    </contour>
  </outline>
</glyph>
<glyph name="equal" format="1">
  <advance width="1286"/>
  <unicode hex="003D"/>
  <outline>
    <contour>
      <point x="181" y="951" type="line"/>
      <point x="181" y="1145" type="line"/>
      <point x="1105" y="1145" type="line"/>
      <point x="1105" y="951" type="line"/>
    </contour>
    <contour>
      <point x="181" y="471" type="line"/>
      <point x="181" y="666" type="line"/>
      <point x="1105" y="666" type="line"/>
      <point x="1105" y="471" type="line"/>
    </contour>
  </outline>
</glyph>
<glyph name="greater" format="1">
  <advance width="1331"/>
  <unicode hex="003E"/>
  <outline>
    <contour>
      <point x="203" y="196" type="line"/>
      <point x="203" y="441" type="line"/>
      <point x="886" y="763" type="line"/>
      <point x="203" y="1067" type="line"/>
      <point x="203" y="1319" type="line"/>
      <point x="1172" y="829" type="line"/>
      <point x="1172" y="695" type="line"/>
    </contour>
  </outline>
</glyph>
<glyph name="I" format="1">
  <advance width="811"/>
  <unicode hex="0049"/>
  <outline>
    <contour>
      <point x="77" y="0" type="line"/>
      <point x="77" y="116" type="line"/>
      <point x="261" y="153" type="line"/>
      <point x="261" y="1397" type="line"/>
      <point x="78" y="1418" type="line"/>
      <point x="78" y="1553" type="line"/>
      <point x="726" y="1553" type="line"/>
      <point x="726" y="1418" type="line"/>
      <point x="550" y="1396" type="line"/>
      <point x="550" y="154" type="line"/>
      <point x="736" y="116" type="line"/>
      <point x="736" y="0" type="line"/>
    </contour>
  </outline>
</glyph>
<glyph name="J" format="1">
  <advance width="758"/>
  <unicode hex="004A"/>
  <outline>
    <contour>
      <point x="206" y="-52" type="curve"/>
      <point x="247" y="65"/>
      <point x="255" y="200"/>
      <point x="255" y="404" type="curve" smooth="yes"/>
      <point x="255" y="1398" type="line"/>
      <point x="99" y="1418" type="line"/>
      <point x="99" y="1553" type="line"/>
      <point x="695" y="1553" type="line"/>
      <point x="695" y="1418" type="line"/>
      <point x="544" y="1397" type="line"/>
      <point x="544" y="541" type="line" smooth="yes"/>
      <point x="544" y="325"/>
      <point x="536" y="112"/>
      <point x="501" y="-2" type="curve"/>
      <point x="419" y="-251"/>
      <point x="155" y="-377"/>
      <point x="-39" y="-393" type="curve"/>
      <point x="-101" y="-305" type="line"/>
      <point x="38" y="-256"/>
      <point x="153" y="-180"/>
    </contour>
  </outline>
</glyph>
<glyph name="M" format="1">
  <advance width="2024"/>
  <unicode hex="004D"/>
  <outline>
    <contour>
      <point x="69" y="0" type="line"/>
      <point x="69" y="116" type="line"/>
      <point x="241" y="153" type="line"/>
      <point x="324" y="1379" type="line"/>
      <point x="134" y="1400" type="line"/>
      <point x="134" y="1553" type="line"/>
      <point x="719" y="1553" type="line"/>
      <point x="1011" y="630" type="line"/>
      <point x="1049" y="443" type="line"/>
      <point x="1094" y="631" type="line"/>
      <point x="1371" y="1553" type="line"/>
      <point x="1910" y="1553" type="line"/>
      <point x="1910" y="1400" type="line"/>
      <point x="1723" y="1380" type="line"/>
      <point x="1830" y="153" type="line"/>
      <point x="1994" y="115" type="line"/>
      <point x="1994" y="0" type="line"/>
      <point x="1393" y="0" type="line"/>
      <point x="1393" y="115" type="line"/>
      <point x="1557" y="154" type="line"/>
      <point x="1490" y="993" type="line"/>
      <point x="1484" y="1373" type="line"/>
      <point x="1447" y="1224" type="line"/>
      <point x="1063" y="-17" type="line"/>
      <point x="960" y="-17" type="line"/>
      <point x="607" y="1018" type="line" smooth="yes"/>
      <point x="592" y="1059"/>
      <point x="532" y="1248"/>
      <point x="491" y="1373" type="curve"/>
      <point x="485" y="1067" type="line"/>
      <point x="447" y="155" type="line"/>
      <point x="634" y="116" type="line"/>
      <point x="634" y="0" type="line"/>
    </contour>
  </outline>
</glyph>
<glyph name="N" format="1">
  <advance width="1687"/>
  <unicode hex="004E"/>
  <outline>
    <contour>
      <point x="89" y="0" type="line"/>
      <point x="89" y="116" type="line"/>
      <point x="252" y="155" type="line"/>
      <point x="252" y="1381" type="line"/>
      <point x="96" y="1401" type="line"/>
      <point x="96" y="1553" type="line"/>
      <point x="538" y="1553" type="line"/>
      <point x="1169" y="485" type="line"/>
      <point x="1281" y="224" type="line"/>
      <point x="1281" y="1379" type="line"/>
      <point x="1107" y="1403" type="line"/>
      <point x="1107" y="1553" type="line"/>
      <point x="1621" y="1553" type="line"/>
      <point x="1621" y="1403" type="line"/>
      <point x="1471" y="1382" type="line"/>
      <point x="1471" y="0" type="line"/>
      <point x="1160" y="0" type="line"/>
      <point x="565" y="970" type="line"/>
      <point x="445" y="1247" type="line"/>
      <point x="445" y="157" type="line"/>
      <point x="644" y="116" type="line"/>
      <point x="644" y="0" type="line"/>
    </contour>
  </outline>
</glyph>
<glyph name="V" format="1">
  <advance width="1464"/>
  <unicode hex="0056"/>
  <outline>
    <contour>
      <point x="646" y="-17" type="line"/>
      <point x="134" y="1399" type="line"/>
      <point x="10" y="1418" type="line"/>
      <point x="10" y="1553" type="line"/>
      <point x="620" y="1553" type="line"/>
      <point x="620" y="1419" type="line"/>
      <point x="450" y="1397" type="line"/>
      <point x="719" y="526" type="line"/>
      <point x="785" y="279" type="line"/>
      <point x="846" y="524" type="line"/>
      <point x="1091" y="1398" type="line"/>
      <point x="932" y="1418" type="line"/>
      <point x="932" y="1552" type="line"/>
      <point x="1454" y="1552" type="line"/>
      <point x="1454" y="1418" type="line"/>
      <point x="1333" y="1399" type="line"/>
      <point x="866" y="-17" type="line"/>
    </contour>
  </outline>
</glyph>
<glyph name="W" format="1">
  <advance width="2203"/>
  <unicode hex="0057"/>
  <outline>
    <contour>
      <point x="603" y="-17" type="line"/>
      <point x="138" y="1398" type="line"/>
      <point x="11" y="1417" type="line"/>
      <point x="11" y="1553" type="line"/>
      <point x="597" y="1553" type="line"/>
      <point x="597" y="1418" type="line"/>
      <point x="448" y="1398" type="line"/>
      <point x="716" y="428" type="line"/>
      <point x="731" y="367"/>
      <point x="745" y="305"/>
      <point x="761" y="244" type="curve"/>
      <point x="807" y="423" type="line"/>
      <point x="1006" y="1229" type="line"/>
      <point x="959" y="1399" type="line"/>
      <point x="816" y="1417" type="line"/>
      <point x="816" y="1553" type="line"/>
      <point x="1418" y="1553" type="line"/>
      <point x="1418" y="1418" type="line"/>
      <point x="1251" y="1397" type="line"/>
      <point x="1484" y="420" type="line"/>
      <point x="1525" y="239" type="line"/>
      <point x="1572" y="436" type="line"/>
      <point x="1811" y="1398" type="line"/>
      <point x="1651" y="1417" type="line"/>
      <point x="1651" y="1553" type="line"/>
      <point x="2192" y="1553" type="line"/>
      <point x="2192" y="1417" type="line"/>
      <point x="2043" y="1400" type="line"/>
      <point x="1622" y="-18" type="line"/>
      <point x="1359" y="-18" type="line"/>
      <point x="1105" y="881" type="line"/>
      <point x="856" y="-17" type="line"/>
    </contour>
  </outline>
</glyph>
<glyph name="Z" format="1">
  <advance width="1372"/>
  <unicode hex="005A"/>
  <outline>
    <contour>
      <point x="104" y="0" type="line"/>
      <point x="69" y="117" type="line"/>
      <point x="864" y="1260" type="line"/>
      <point x="1003" y="1415" type="line"/>
      <point x="369" y="1379" type="line"/>
      <point x="255" y="1141" type="line"/>
      <point x="122" y="1166" type="line"/>
      <point x="161" y="1553" type="line"/>
      <point x="1277" y="1553" type="line"/>
      <point x="1315" y="1429" type="line"/>
      <point x="529" y="288" type="line"/>
      <point x="405" y="141" type="line"/>
      <point x="1046" y="184" type="line"/>
      <point x="1215" y="445" type="line"/>
      <point x="1342" y="412" type="line"/>
      <point x="1249" y="0" type="line"/>
    </contour>
  </outline>
</glyph>
<glyph name="bracketleft" format="1">
  <advance width="1004"/>
  <unicode hex="005B"/>
  <outline>
    <contour>
      <point x="233" y="89" type="curve" smooth="yes"/>
      <point x="233" y="1501" type="line" smooth="yes"/>
      <point x="233" y="1721"/>
      <point x="311" y="1775"/>
      <point x="493" y="1775" type="curve" smooth="yes"/>
      <point x="593" y="1775"/>
      <point x="693" y="1742"/>
      <point x="784" y="1712" type="curve"/>
      <point x="784" y="1676"/>
      <point x="783" y="1641"/>
      <point x="783" y="1605" type="curve"/>
      <point x="482" y="1605" type="line"/>
      <point x="482" y="-42" type="line"/>
      <point x="783" y="-45" type="line"/>
      <point x="783" y="-82"/>
      <point x="785" y="-117"/>
      <point x="785" y="-153" type="curve"/>
      <point x="711" y="-185"/>
      <point x="593" y="-213"/>
      <point x="494" y="-213" type="curve" smooth="yes"/>
      <point x="311" y="-213"/>
      <point x="233" y="-165"/>
    </contour>
  </outline>
</glyph>
<glyph name="backslash" format="1">
  <advance width="822"/>
  <unicode hex="005C"/>
  <outline>
    <contour>
      <point x="792" y="-363" type="line"/>
      <point x="570" y="-363" type="line"/>
      <point x="30" y="1599" type="line"/>
      <point x="253" y="1599" type="line"/>
    </contour>
  </outline>
</glyph>
<glyph name="bracketright" format="1">
  <advance width="1004"/>
  <unicode hex="005D"/>
  <outline>
    <contour>
      <point x="215" y="-153" type="curve"/>
      <point x="218" y="-45" type="line"/>
      <point x="519" y="-42" type="line"/>
      <point x="519" y="1605" type="line"/>
      <point x="218" y="1605" type="line"/>
      <point x="218" y="1641"/>
      <point x="217" y="1676"/>
      <point x="217" y="1712" type="curve"/>
      <point x="308" y="1742"/>
      <point x="408" y="1775"/>
      <point x="507" y="1775" type="curve" smooth="yes"/>
      <point x="689" y="1775"/>
      <point x="767" y="1721"/>
      <point x="767" y="1501" type="curve" smooth="yes"/>
      <point x="767" y="89" type="line" smooth="yes"/>
      <point x="767" y="-165"/>
      <point x="690" y="-213"/>
      <point x="507" y="-213" type="curve" smooth="yes"/>
      <point x="408" y="-213"/>
      <point x="290" y="-185"/>
    </contour>
  </outline>
</glyph>
<glyph name="underscore" format="1">
  <advance width="1418"/>
  <unicode hex="005F"/>
  <outline>
    <contour>
      <point x="-20" y="-193" type="line"/>
      <point x="1435" y="-193" type="line"/>
      <point x="1435" y="-389" type="line"/>
      <point x="-20" y="-389" type="line"/>
    </contour>
  </outline>
</glyph>
<glyph name="f" format="1">
  <advance width="899"/>
  <unicode hex="0066"/>
  <outline>
    <contour>
      <point x="88" y="0" type="line"/>
      <point x="88" y="114" type="line"/>
      <point x="267" y="141" type="line"/>
      <point x="267" y="944" type="line"/>
      <point x="68" y="944" type="line"/>
      <point x="68" y="1036" type="line"/>
      <point x="267" y="1107" type="line"/>
      <point x="267" y="1202" type="line" smooth="yes"/>
      <point x="267" y="1464"/>
      <point x="485" y="1714"/>
      <point x="726" y="1714" type="curve" smooth="yes"/>
      <point x="805" y="1714"/>
      <point x="876" y="1704"/>
      <point x="910" y="1689" type="curve"/>
      <point x="910" y="1468" type="line"/>
      <point x="890" y="1477"/>
      <point x="796" y="1513"/>
      <point x="704" y="1513" type="curve" smooth="yes"/>
      <point x="607" y="1513"/>
      <point x="551" y="1496"/>
      <point x="551" y="1298" type="curve" smooth="yes"/>
      <point x="551" y="1119" type="line"/>
      <point x="852" y="1119" type="line"/>
      <point x="852" y="944" type="line"/>
      <point x="551" y="944" type="line"/>
      <point x="551" y="139" type="line"/>
      <point x="787" y="114" type="line"/>
      <point x="787" y="0" type="line"/>
    </contour>
  </outline>
</glyph>
<glyph name="g" format="1">
  <advance width="1244"/>
  <unicode hex="0067"/>
  <outline>
    <contour>
      <point x="94" y="-234" type="curve" smooth="yes"/>
      <point x="94" y="-104"/>
      <point x="189" y="-10"/>
      <point x="264" y="37" type="curve"/>
      <point x="154" y="77"/>
      <point x="151" y="149"/>
      <point x="151" y="219" type="curve" smooth="yes"/>
      <point x="151" y="277"/>
      <point x="211" y="385"/>
      <point x="283" y="446" type="curve"/>
      <point x="171" y="506"/>
      <point x="102" y="607"/>
      <point x="102" y="753" type="curve" smooth="yes"/>
      <point x="102" y="1032"/>
      <point x="357" y="1151"/>
      <point x="604" y="1155" type="curve" smooth="yes"/>
      <point x="737" y="1157"/>
      <point x="854" y="1130"/>
      <point x="937" y="1068" type="curve"/>
      <point x="964" y="1111"/>
      <point x="1019" y="1143"/>
      <point x="1133" y="1143" type="curve" smooth="yes"/>
      <point x="1236" y="1143" type="line"/>
      <point x="1236" y="941" type="line"/>
      <point x="1035" y="941" type="line"/>
      <point x="1053" y="897"/>
      <point x="1063" y="846"/>
      <point x="1063" y="788" type="curve" smooth="yes"/>
      <point x="1063" y="520"/>
      <point x="848" y="384"/>
      <point x="578" y="384" type="curve" smooth="yes"/>
      <point x="509" y="384"/>
      <point x="445" y="391"/>
      <point x="388" y="406" type="curve"/>
      <point x="378" y="373"/>
      <point x="373" y="337"/>
      <point x="373" y="312" type="curve" smooth="yes"/>
      <point x="373" y="235"/>
      <point x="417" y="199"/>
      <point x="509" y="196" type="curve" smooth="yes"/>
      <point x="571" y="193"/>
      <point x="651" y="193"/>
      <point x="754" y="193" type="curve" smooth="yes"/>
      <point x="1117" y="193"/>
      <point x="1198" y="60"/>
      <point x="1198" y="-128" type="curve" smooth="yes"/>
      <point x="1198" y="-357"/>
      <point x="984" y="-531"/>
      <point x="594" y="-531" type="curve" smooth="yes"/>
      <point x="314" y="-531"/>
      <point x="94" y="-452"/>
    </contour>
    <contour>
      <point x="604" y="521" type="curve" smooth="yes"/>
      <point x="747" y="521"/>
      <point x="795" y="627"/>
      <point x="795" y="769" type="curve" smooth="yes"/>
      <point x="795" y="941"/>
      <point x="722" y="1031"/>
      <point x="581" y="1031" type="curve" smooth="yes"/>
      <point x="477" y="1031"/>
      <point x="381" y="976"/>
      <point x="381" y="814" type="curve" smooth="yes"/>
      <point x="381" y="655"/>
      <point x="435" y="521"/>
    </contour>
    <contour>
      <point x="344" y="-151" type="curve" smooth="yes"/>
      <point x="344" y="-319"/>
      <point x="475" y="-392"/>
      <point x="642" y="-392" type="curve" smooth="yes"/>
      <point x="837" y="-392"/>
      <point x="948" y="-342"/>
      <point x="948" y="-193" type="curve" smooth="yes"/>
      <point x="948" y="-90"/>
      <point x="929" y="2"/>
      <point x="693" y="2" type="curve"/>
      <point x="538" y="3" type="line" smooth="yes"/>
      <point x="479" y="3"/>
      <point x="428" y="5"/>
      <point x="385" y="10" type="curve"/>
      <point x="363" y="-24"/>
      <point x="344" y="-72"/>
    </contour>
  </outline>
</glyph>
<glyph name="h" format="1">
  <advance width="1416"/>
  <unicode hex="0068"/>
  <outline>
    <contour>
      <point x="88" y="0" type="line"/>
      <point x="88" y="114" type="line"/>
      <point x="234" y="139" type="line"/>
      <point x="234" y="1417" type="line"/>
      <point x="83" y="1465" type="line"/>
      <point x="83" y="1582" type="line"/>
      <point x="464" y="1628" type="line"/>
      <point x="518" y="1608" type="line"/>
      <point x="517" y="1137" type="line"/>
      <point x="503" y="1004" type="line"/>
      <point x="623" y="1108"/>
      <point x="778" y="1146"/>
      <point x="883" y="1146" type="curve" smooth="yes"/>
      <point x="1163" y="1146"/>
      <point x="1220" y="963"/>
      <point x="1216" y="618" type="curve"/>
      <point x="1216" y="139" type="line"/>
      <point x="1358" y="114" type="line"/>
      <point x="1358" y="0" type="line"/>
      <point x="777" y="1" type="line"/>
      <point x="777" y="114" type="line"/>
      <point x="932" y="140" type="line"/>
      <point x="932" y="554" type="line" smooth="yes"/>
      <point x="932" y="805"/>
      <point x="921" y="958"/>
      <point x="726" y="958" type="curve" smooth="yes"/>
      <point x="655" y="958"/>
      <point x="581" y="943"/>
      <point x="518" y="896" type="curve"/>
      <point x="518" y="139" type="line"/>
      <point x="637" y="114" type="line"/>
      <point x="637" y="0" type="line"/>
    </contour>
  </outline>
</glyph>
<glyph name="i" format="1">
  <advance width="720"/>
  <unicode hex="0069"/>
  <outline>
    <contour>
      <point x="348" y="1347" type="curve" smooth="yes"/>
      <point x="260" y="1347"/>
      <point x="176" y="1407"/>
      <point x="176" y="1506" type="curve" smooth="yes"/>
      <point x="176" y="1615"/>
      <point x="283" y="1697"/>
      <point x="380" y="1697" type="curve" smooth="yes"/>
      <point x="499" y="1697"/>
      <point x="551" y="1624"/>
      <point x="551" y="1536" type="curve" smooth="yes"/>
      <point x="551" y="1421"/>
      <point x="450" y="1347"/>
    </contour>
    <contour>
      <point x="93" y="0" type="line"/>
      <point x="93" y="114" type="line"/>
      <point x="243" y="140" type="line"/>
      <point x="243" y="846" type="line"/>
      <point x="111" y="959" type="line"/>
      <point x="111" y="1039" type="line"/>
      <point x="456" y="1146" type="line"/>
      <point x="523" y="1123" type="line"/>
      <point x="523" y="138" type="line"/>
      <point x="675" y="114" type="line"/>
      <point x="675" y="0" type="line"/>
    </contour>
  </outline>
</glyph>
<glyph name="j" format="1">
  <advance width="669"/>
  <unicode hex="006A"/>
  <outline>
    <contour>
      <point x="322" y="1359" type="curve" smooth="yes"/>
      <point x="234" y="1359"/>
      <point x="151" y="1419"/>
      <point x="151" y="1519" type="curve" smooth="yes"/>
      <point x="151" y="1627"/>
      <point x="257" y="1709"/>
      <point x="354" y="1709" type="curve" smooth="yes"/>
      <point x="473" y="1709"/>
      <point x="526" y="1636"/>
      <point x="526" y="1548" type="curve" smooth="yes"/>
      <point x="526" y="1433"/>
      <point x="425" y="1359"/>
    </contour>
    <contour>
      <point x="228" y="-4" type="curve" smooth="yes"/>
      <point x="228" y="846" type="line"/>
      <point x="105" y="962" type="line"/>
      <point x="105" y="1037" type="line"/>
      <point x="444" y="1146" type="line"/>
      <point x="510" y="1122" type="line"/>
      <point x="510" y="-34" type="line" smooth="yes"/>
      <point x="510" y="-346"/>
      <point x="367" y="-530"/>
      <point x="138" y="-530" type="curve" smooth="yes"/>
      <point x="74" y="-530"/>
      <point x="-16" y="-512"/>
      <point x="-27" y="-503" type="curve"/>
      <point x="-27" y="-337" type="line"/>
      <point x="-4" y="-344"/>
      <point x="65" y="-348"/>
      <point x="90" y="-348" type="curve" smooth="yes"/>
      <point x="203" y="-348"/>
      <point x="228" y="-248"/>
    </contour>
  </outline>
</glyph>
<glyph name="k" format="1">
  <advance width="1322"/>
  <unicode hex="006B"/>
  <outline>
    <contour>
      <point x="87" y="0" type="line"/>
      <point x="87" y="114" type="line"/>
      <point x="234" y="141" type="line"/>
      <point x="234" y="1399" type="line"/>
      <point x="65" y="1455" type="line"/>
      <point x="65" y="1573" type="line"/>
      <point x="466" y="1628" type="line"/>
      <point x="518" y="1603" type="line"/>
      <point x="518" y="708" type="line"/>
      <point x="509" y="562" type="line"/>
      <point x="885" y="957" type="line"/>
      <point x="716" y="976" type="line"/>
      <point x="716" y="1123" type="line"/>
      <point x="1283" y="1123" type="line"/>
      <point x="1283" y="976" type="line"/>
      <point x="1102" y="958" type="line"/>
      <point x="818" y="679" type="line"/>
      <point x="1194" y="136" type="line"/>
      <point x="1312" y="115" type="line"/>
      <point x="1312" y="0" type="line"/>
      <point x="767" y="0" type="line"/>
      <point x="767" y="115" type="line"/>
      <point x="871" y="141" type="line"/>
      <point x="637" y="520" type="line"/>
      <point x="508" y="382" type="line"/>
      <point x="517" y="253" type="line"/>
      <point x="517" y="138" type="line"/>
      <point x="646" y="114" type="line"/>
      <point x="646" y="0" type="line"/>
    </contour>
  </outline>
</glyph>
<glyph name="l" format="1">
  <advance width="719"/>
  <unicode hex="006C"/>
  <outline>
    <contour>
      <point x="86" y="0" type="line"/>
      <point x="86" y="114" type="line"/>
      <point x="227" y="139" type="line"/>
      <point x="227" y="1417" type="line"/>
      <point x="81" y="1465" type="line"/>
      <point x="81" y="1582" type="line"/>
      <point x="461" y="1628" type="line"/>
      <point x="511" y="1608" type="line"/>
      <point x="511" y="140" type="line"/>
      <point x="688" y="114" type="line"/>
      <point x="688" y="0" type="line"/>
    </contour>
  </outline>
</glyph>
<glyph name="m" format="1">
  <advance width="2126"/>
  <unicode hex="006D"/>
  <outline>
    <contour>
      <point x="115" y="0" type="line"/>
      <point x="115" y="114" type="line"/>
      <point x="245" y="138" type="line"/>
      <point x="245" y="863" type="line"/>
      <point x="106" y="951" type="line"/>
      <point x="106" y="1049" type="line"/>
      <point x="432" y="1146" type="line"/>
      <point x="493" y="1126" type="line"/>
      <point x="493" y="981" type="line"/>
      <point x="579" y="1064"/>
      <point x="734" y="1141"/>
      <point x="872" y="1147" type="curve" smooth="yes"/>
      <point x="1016" y="1154"/>
      <point x="1132" y="1117"/>
      <point x="1186" y="995" type="curve"/>
      <point x="1276" y="1070"/>
      <point x="1416" y="1144"/>
      <point x="1568" y="1146" type="curve" smooth="yes"/>
      <point x="1826" y="1149"/>
      <point x="1925" y="989"/>
      <point x="1925" y="668" type="curve" smooth="yes"/>
      <point x="1925" y="139" type="line"/>
      <point x="2078" y="114" type="line"/>
      <point x="2078" y="0" type="line"/>
      <point x="1516" y="0" type="line"/>
      <point x="1516" y="114" type="line"/>
      <point x="1641" y="139" type="line"/>
      <point x="1641" y="628" type="line" smooth="yes"/>
      <point x="1641" y="883"/>
      <point x="1592" y="958"/>
      <point x="1420" y="954" type="curve" smooth="yes"/>
      <point x="1355" y="952"/>
      <point x="1282" y="926"/>
      <point x="1222" y="888" type="curve"/>
      <point x="1231" y="843"/>
      <point x="1237" y="784"/>
      <point x="1237" y="690" type="curve" smooth="yes"/>
      <point x="1237" y="139" type="line"/>
      <point x="1384" y="114" type="line"/>
      <point x="1384" y="0" type="line"/>
      <point x="808" y="0" type="line"/>
      <point x="808" y="114" type="line"/>
      <point x="954" y="140" type="line"/>
      <point x="954" y="639" type="line" smooth="yes"/>
      <point x="954" y="894"/>
      <point x="891" y="963"/>
      <point x="719" y="953" type="curve"/>
      <point x="669" y="949"/>
      <point x="586" y="923"/>
      <point x="530" y="879" type="curve"/>
      <point x="530" y="605" type="line" smooth="yes"/>
      <point x="530" y="525"/>
      <point x="529" y="268"/>
      <point x="529" y="139" type="curve"/>
      <point x="668" y="114" type="line"/>
      <point x="668" y="0" type="line"/>
    </contour>
  </outline>
</glyph>
<glyph name="q" format="1">
  <advance width="1295"/>
  <unicode hex="0071"/>
  <outline>
    <contour>
      <point x="85" y="549" type="curve" smooth="yes"/>
      <point x="85" y="886"/>
      <point x="345" y="1152"/>
      <point x="716" y="1152" type="curve" smooth="yes"/>
      <point x="790" y="1152"/>
      <point x="903" y="1135"/>
      <point x="962" y="1101" type="curve"/>
      <point x="1092" y="1146" type="line"/>
      <point x="1139" y="1125" type="line"/>
      <point x="1139" y="-372" type="line"/>
      <point x="1272" y="-395" type="line"/>
      <point x="1272" y="-511" type="line"/>
      <point x="657" y="-511" type="line"/>
      <point x="657" y="-395" type="line"/>
      <point x="855" y="-372" type="line"/>
      <point x="855" y="-47" type="line"/>
      <point x="865" y="89" type="line"/>
      <point x="824" y="49"/>
      <point x="728" y="-26"/>
      <point x="562" y="-26" type="curve" smooth="yes"/>
      <point x="382" y="-26"/>
      <point x="85" y="56"/>
    </contour>
    <contour>
      <point x="657" y="148" type="curve" smooth="yes"/>
      <point x="747" y="148"/>
      <point x="817" y="178"/>
      <point x="855" y="212" type="curve"/>
      <point x="855" y="954" type="line"/>
      <point x="826" y="996"/>
      <point x="765" y="1020"/>
      <point x="698" y="1020" type="curve" smooth="yes"/>
      <point x="483" y="1020"/>
      <point x="382" y="861"/>
      <point x="377" y="593" type="curve"/>
      <point x="370" y="317"/>
      <point x="468" y="148"/>
    </contour>
  </outline>
</glyph>
<glyph name="s" format="1">
  <advance width="1075"/>
  <unicode hex="0073"/>
  <outline>
    <contour>
      <point x="129" y="64" type="curve"/>
      <point x="129" y="312" type="line"/>
      <point x="261" y="312" type="line"/>
      <point x="314" y="197" type="line"/>
      <point x="362" y="153"/>
      <point x="418" y="104"/>
      <point x="515" y="99" type="curve" smooth="yes"/>
      <point x="647" y="93"/>
      <point x="729" y="149"/>
      <point x="729" y="252" type="curve"/>
      <point x="728" y="345"/>
      <point x="597" y="394"/>
      <point x="458" y="459" type="curve" smooth="yes"/>
      <point x="283" y="541"/>
      <point x="119" y="643"/>
      <point x="122" y="839" type="curve" smooth="yes"/>
      <point x="126" y="1063"/>
      <point x="382" y="1146"/>
      <point x="567" y="1151" type="curve" smooth="yes"/>
      <point x="710" y="1155"/>
      <point x="855" y="1121"/>
      <point x="927" y="1089" type="curve"/>
      <point x="927" y="841" type="line"/>
      <point x="791" y="841" type="line"/>
      <point x="740" y="960" type="line"/>
      <point x="704" y="1000"/>
      <point x="653" y="1035"/>
      <point x="581" y="1036" type="curve"/>
      <point x="484" y="1036"/>
      <point x="402" y="999"/>
      <point x="401" y="911" type="curve" smooth="yes"/>
      <point x="399" y="809"/>
      <point x="504" y="753"/>
      <point x="624" y="695" type="curve"/>
      <point x="797" y="616"/>
      <point x="1000" y="540"/>
      <point x="1000" y="328" type="curve" smooth="yes"/>
      <point x="1000" y="81"/>
      <point x="777" y="-24"/>
      <point x="508" y="-24" type="curve" smooth="yes"/>
      <point x="383" y="-24"/>
      <point x="234" y="4"/>
    </contour>
  </outline>
</glyph>
<glyph name="t" format="1">
  <advance width="897"/>
  <unicode hex="0074"/>
  <outline>
    <contour>
      <point x="217" y="309" type="curve" smooth="yes"/>
      <point x="217" y="963" type="line"/>
      <point x="65" y="963" type="line"/>
      <point x="65" y="1060" type="line"/>
      <point x="157" y="1079"/>
      <point x="208" y="1089"/>
      <point x="246" y="1141" type="curve"/>
      <point x="279" y="1182"/>
      <point x="320" y="1290"/>
      <point x="347" y="1386" type="curve"/>
      <point x="485" y="1386" type="line"/>
      <point x="485" y="1119" type="line"/>
      <point x="824" y="1119" type="line"/>
      <point x="824" y="963" type="line"/>
      <point x="494" y="963" type="line"/>
      <point x="494" y="538" type="line" smooth="yes"/>
      <point x="494" y="202"/>
      <point x="514" y="152"/>
      <point x="614" y="152" type="curve" smooth="yes"/>
      <point x="674" y="152"/>
      <point x="766" y="171"/>
      <point x="801" y="193" type="curve"/>
      <point x="844" y="90" type="line"/>
      <point x="782" y="24"/>
      <point x="621" y="-24"/>
      <point x="480" y="-24" type="curve" smooth="yes"/>
      <point x="286" y="-24"/>
      <point x="217" y="77"/>
    </contour>
  </outline>
</glyph>
<glyph name="u" format="1">
  <advance width="1314"/>
  <unicode hex="0075"/>
  <outline>
    <contour>
      <point x="176" y="421" type="curve"/>
      <point x="176" y="915" type="line"/>
      <point x="78" y="968" type="line"/>
      <point x="78" y="1070" type="line"/>
      <point x="406" y="1146" type="line"/>
      <point x="451" y="1128" type="line"/>
      <point x="451" y="435" type="line" smooth="yes"/>
      <point x="451" y="238"/>
      <point x="485" y="145"/>
      <point x="631" y="145" type="curve" smooth="yes"/>
      <point x="721" y="145"/>
      <point x="818" y="190"/>
      <point x="852" y="224" type="curve"/>
      <point x="852" y="902" type="line"/>
      <point x="726" y="956" type="line"/>
      <point x="726" y="1070" type="line"/>
      <point x="1087" y="1146" type="line"/>
      <point x="1130" y="1129" type="line"/>
      <point x="1130" y="114" type="line"/>
      <point x="1247" y="114" type="line"/>
      <point x="1247" y="20" type="line"/>
      <point x="1205" y="-7"/>
      <point x="1095" y="-31"/>
      <point x="1006" y="-31" type="curve" smooth="yes"/>
      <point x="933" y="-31"/>
      <point x="880" y="-2"/>
      <point x="880" y="69" type="curve" smooth="yes"/>
      <point x="880" y="126" type="line"/>
      <point x="787" y="30"/>
      <point x="639" y="-25"/>
      <point x="533" y="-25" type="curve" smooth="yes"/>
      <point x="239" y="-25"/>
      <point x="177" y="135"/>
    </contour>
  </outline>
</glyph>
<glyph name="braceleft" format="1">
  <advance width="1091"/>
  <unicode hex="007B"/>
  <outline>
    <contour>
      <point x="290" y="32" type="curve" smooth="yes"/>
      <point x="290" y="568" type="line" smooth="yes"/>
      <point x="290" y="627"/>
      <point x="183" y="675"/>
      <point x="81" y="691" type="curve"/>
      <point x="81" y="871" type="line"/>
      <point x="187" y="889"/>
      <point x="290" y="919"/>
      <point x="290" y="985" type="curve" smooth="yes"/>
      <point x="290" y="1527" type="line" smooth="yes"/>
      <point x="290" y="1724"/>
      <point x="374" y="1777"/>
      <point x="528" y="1777" type="curve" smooth="yes"/>
      <point x="637" y="1777"/>
      <point x="753" y="1739"/>
      <point x="839" y="1716" type="curve"/>
      <point x="839" y="1679"/>
      <point x="838" y="1643"/>
      <point x="838" y="1607" type="curve"/>
      <point x="538" y="1607" type="line"/>
      <point x="538" y="971" type="line" smooth="yes"/>
      <point x="538" y="920"/>
      <point x="517" y="886"/>
      <point x="482" y="858" type="curve" smooth="yes"/>
      <point x="442" y="825"/>
      <point x="385" y="804"/>
      <point x="322" y="776" type="curve"/>
      <point x="388" y="749"/>
      <point x="447" y="723"/>
      <point x="488" y="686" type="curve" smooth="yes"/>
      <point x="519" y="658"/>
      <point x="538" y="622"/>
      <point x="538" y="575" type="curve" smooth="yes"/>
      <point x="538" y="-59" type="line"/>
      <point x="838" y="-59" type="line"/>
      <point x="838" y="-96"/>
      <point x="839" y="-133"/>
      <point x="839" y="-170" type="curve"/>
      <point x="753" y="-194"/>
      <point x="648" y="-230"/>
      <point x="539" y="-230" type="curve" smooth="yes"/>
      <point x="385" y="-230"/>
      <point x="290" y="-182"/>
    </contour>
  </outline>
</glyph>
<glyph name="bar" format="1">
  <advance width="995"/>
  <unicode hex="007C"/>
  <outline>
    <contour>
      <point x="363" y="-186" type="line"/>
      <point x="363" y="1780" type="line"/>
      <point x="639" y="1780" type="line"/>
      <point x="639" y="-186" type="line"/>
    </contour>
  </outline>
</glyph>
<glyph name="exclamdown" format="1">
  <advance width="770"/>
  <unicode hex="00A1"/>
  <outline>
    <contour>
      <point x="379" y="1089" type="curve" smooth="yes"/>
      <point x="294" y="1089"/>
      <point x="210" y="1146"/>
      <point x="210" y="1247" type="curve" smooth="yes"/>
      <point x="210" y="1356"/>
      <point x="316" y="1439"/>
      <point x="409" y="1439" type="curve" smooth="yes"/>
      <point x="527" y="1439"/>
      <point x="581" y="1366"/>
      <point x="581" y="1275" type="curve" smooth="yes"/>
      <point x="581" y="1160"/>
      <point x="479" y="1089"/>
    </contour>
    <contour>
      <point x="188" y="-429" type="line"/>
      <point x="306" y="867" type="line"/>
      <point x="460" y="867" type="line"/>
      <point x="570" y="-429" type="line"/>
    </contour>
  </outline>
</glyph>
<glyph name="cent" format="1">
  <advance width="1172"/>
  <unicode hex="00A2"/>
  <outline>
    <contour>
      <point x="514" y="-14" type="line"/>
      <point x="251" y="34"/>
      <point x="109" y="250"/>
      <point x="107" y="531" type="curve" smooth="yes"/>
      <point x="105" y="881"/>
      <point x="326" y="1101"/>
      <point x="620" y="1143" type="curve"/>
      <point x="633" y="1362" type="line"/>
      <point x="796" y="1362" type="line"/>
      <point x="784" y="1149" type="line"/>
      <point x="885" y="1144"/>
      <point x="985" y="1125"/>
      <point x="1029" y="1099" type="curve"/>
      <point x="1029" y="815" type="line"/>
      <point x="885" y="815" type="line"/>
      <point x="818" y="977" type="line"/>
      <point x="778" y="1004"/>
      <point x="717" y="1011"/>
      <point x="672" y="1011" type="curve" smooth="yes"/>
      <point x="518" y="1011"/>
      <point x="400" y="877"/>
      <point x="395" y="625" type="curve" smooth="yes"/>
      <point x="387" y="285"/>
      <point x="563" y="146"/>
      <point x="737" y="146" type="curve" smooth="yes"/>
      <point x="850" y="146"/>
      <point x="969" y="177"/>
      <point x="1021" y="213" type="curve"/>
      <point x="1066" y="103" type="line"/>
      <point x="980" y="29"/>
      <point x="837" y="-16"/>
      <point x="676" y="-24" type="curve"/>
      <point x="666" y="-217" type="line"/>
      <point x="502" y="-217" type="line"/>
    </contour>
  </outline>
</glyph>
<glyph name="brokenbar" format="1">
  <advance width="995"/>
  <unicode hex="00A6"/>
  <outline>
    <contour>
      <point x="363" y="898" type="line"/>
      <point x="363" y="1780" type="line"/>
      <point x="639" y="1780" type="line"/>
      <point x="639" y="898" type="line"/>
    </contour>
    <contour>
      <point x="363" y="-185" type="line"/>
      <point x="363" y="697" type="line"/>
      <point x="639" y="697" type="line"/>
      <point x="639" y="-185" type="line"/>
    </contour>
  </outline>
</glyph>
<glyph name="dieresis" format="1">
  <advance width="1062"/>
  <unicode hex="00A8"/>
  <outline>
    <contour>
      <point x="768" y="1363" type="curve" smooth="yes"/>
      <point x="688" y="1363"/>
      <point x="612" y="1410"/>
      <point x="612" y="1495" type="curve" smooth="yes"/>
      <point x="612" y="1583"/>
      <point x="705" y="1648"/>
      <point x="793" y="1648" type="curve" smooth="yes"/>
      <point x="905" y="1648"/>
      <point x="949" y="1591"/>
      <point x="949" y="1517" type="curve" smooth="yes"/>
      <point x="949" y="1422"/>
      <point x="862" y="1363"/>
    </contour>
    <contour>
      <point x="267" y="1363" type="curve" smooth="yes"/>
      <point x="185" y="1363"/>
      <point x="113" y="1409"/>
      <point x="113" y="1493" type="curve" smooth="yes"/>
      <point x="113" y="1583"/>
      <point x="204" y="1648"/>
      <point x="293" y="1648" type="curve" smooth="yes"/>
      <point x="405" y="1648"/>
      <point x="452" y="1590"/>
      <point x="452" y="1516" type="curve" smooth="yes"/>
      <point x="452" y="1422"/>
      <point x="362" y="1363"/>
    </contour>
  </outline>
</glyph>
<glyph name="copyright" format="1">
  <advance width="2081"/>
  <unicode hex="00A9"/>
  <outline>
    <contour>
      <point x="1041" y="219" type="curve" smooth="yes"/>
      <point x="548" y="219"/>
      <point x="181" y="594"/>
      <point x="181" y="1069" type="curve" smooth="yes"/>
      <point x="181" y="1545"/>
      <point x="565" y="1920"/>
      <point x="1041" y="1920" type="curve" smooth="yes"/>
      <point x="1514" y="1920"/>
      <point x="1900" y="1551"/>
      <point x="1900" y="1069" type="curve" smooth="yes"/>
      <point x="1900" y="607"/>
      <point x="1514" y="219"/>
    </contour>
    <contour>
      <point x="1040" y="359" type="curve" smooth="yes"/>
      <point x="1425" y="359"/>
      <point x="1738" y="674"/>
      <point x="1738" y="1069" type="curve" smooth="yes"/>
      <point x="1738" y="1467"/>
      <point x="1425" y="1780"/>
      <point x="1040" y="1780" type="curve" smooth="yes"/>
      <point x="653" y="1780"/>
      <point x="343" y="1467"/>
      <point x="343" y="1069" type="curve" smooth="yes"/>
      <point x="343" y="674"/>
      <point x="658" y="359"/>
    </contour>
    <contour>
      <point x="1045" y="585" type="curve" smooth="yes"/>
      <point x="740" y="585"/>
      <point x="581" y="784"/>
      <point x="581" y="1061" type="curve" smooth="yes"/>
      <point x="581" y="1350"/>
      <point x="812" y="1576"/>
      <point x="1087" y="1582" type="curve" smooth="yes"/>
      <point x="1202" y="1584"/>
      <point x="1320" y="1572"/>
      <point x="1373" y="1529" type="curve"/>
      <point x="1373" y="1264" type="line"/>
      <point x="1215" y="1264" type="line"/>
      <point x="1155" y="1406" type="line"/>
      <point x="1134" y="1422"/>
      <point x="1102" y="1430"/>
      <point x="1039" y="1431" type="curve"/>
      <point x="913" y="1431"/>
      <point x="850" y="1311"/>
      <point x="851" y="1115" type="curve"/>
      <point x="851" y="898"/>
      <point x="983" y="775"/>
      <point x="1131" y="775" type="curve" smooth="yes"/>
      <point x="1198" y="775"/>
      <point x="1293" y="788"/>
      <point x="1352" y="824" type="curve"/>
      <point x="1389" y="721" type="line"/>
      <point x="1327" y="644"/>
      <point x="1178" y="585"/>
    </contour>
  </outline>
</glyph>
<glyph name="logicalnot" format="1">
  <advance width="1323"/>
  <unicode hex="00AC"/>
  <outline>
    <contour>
      <point x="181" y="745" type="line"/>
      <point x="181" y="921" type="line"/>
      <point x="1142" y="921" type="line"/>
      <point x="1142" y="357" type="line"/>
      <point x="893" y="357" type="line"/>
      <point x="893" y="745" type="line"/>
    </contour>
  </outline>
</glyph>
<glyph name="registered" format="1">
  <advance width="2081"/>
  <unicode hex="00AE"/>
  <outline>
    <contour>
      <point x="1041" y="219" type="curve" smooth="yes"/>
      <point x="548" y="219"/>
      <point x="181" y="594"/>
      <point x="181" y="1069" type="curve" smooth="yes"/>
      <point x="181" y="1545"/>
      <point x="565" y="1920"/>
      <point x="1041" y="1920" type="curve" smooth="yes"/>
      <point x="1514" y="1920"/>
      <point x="1900" y="1551"/>
      <point x="1900" y="1069" type="curve" smooth="yes"/>
      <point x="1900" y="607"/>
      <point x="1514" y="219"/>
    </contour>
    <contour>
      <point x="1040" y="359" type="curve" smooth="yes"/>
      <point x="1425" y="359"/>
      <point x="1738" y="674"/>
      <point x="1738" y="1069" type="curve" smooth="yes"/>
      <point x="1738" y="1467"/>
      <point x="1425" y="1780"/>
      <point x="1040" y="1780" type="curve" smooth="yes"/>
      <point x="653" y="1780"/>
      <point x="343" y="1467"/>
      <point x="343" y="1069" type="curve" smooth="yes"/>
      <point x="343" y="674"/>
      <point x="658" y="359"/>
    </contour>
    <contour>
      <point x="611" y="605" type="line"/>
      <point x="611" y="710" type="line"/>
      <point x="695" y="744" type="line"/>
      <point x="695" y="1423" type="line"/>
      <point x="611" y="1448" type="line"/>
      <point x="611" y="1567" type="line"/>
      <point x="806" y="1567" type="line"/>
      <point x="874" y="1564"/>
      <point x="949" y="1570"/>
      <point x="1079" y="1571" type="curve"/>
      <point x="1325" y="1571"/>
      <point x="1455" y="1493"/>
      <point x="1459" y="1323" type="curve"/>
      <point x="1459" y="1199"/>
      <point x="1397" y="1049"/>
      <point x="1200" y="1033" type="curve"/>
      <point x="1389" y="986"/>
      <point x="1380" y="720"/>
      <point x="1521" y="720" type="curve"/>
      <point x="1521" y="606" type="line"/>
      <point x="1283" y="606" type="line" smooth="yes"/>
      <point x="1145" y="606"/>
      <point x="1176" y="937"/>
      <point x="979" y="996" type="curve"/>
      <point x="954" y="996" type="line"/>
      <point x="954" y="732" type="line"/>
      <point x="1034" y="710" type="line"/>
      <point x="1034" y="605" type="line"/>
    </contour>
    <contour>
      <point x="954" y="1126" type="line"/>
      <point x="985" y="1118"/>
      <point x="1008" y="1118"/>
      <point x="1053" y="1118" type="curve" smooth="yes"/>
      <point x="1129" y="1117"/>
      <point x="1198" y="1174"/>
      <point x="1198" y="1280" type="curve" smooth="yes"/>
      <point x="1198" y="1398"/>
      <point x="1140" y="1437"/>
      <point x="1014" y="1437" type="curve" smooth="yes"/>
      <point x="991" y="1437"/>
      <point x="976" y="1435"/>
      <point x="954" y="1428" type="curve"/>
    </contour>
  </outline>
</glyph>
<glyph name="plusminus" format="1">
  <advance width="1302"/>
  <unicode hex="00B1"/>
  <outline>
    <contour>
      <point x="546" y="333" type="line"/>
      <point x="546" y="546" type="line"/>
      <point x="554" y="724" type="line"/>
      <point x="395" y="715" type="line"/>
      <point x="180" y="715" type="line"/>
      <point x="180" y="928" type="line"/>
      <point x="395" y="928" type="line"/>
      <point x="554" y="917" type="line"/>
      <point x="546" y="1097" type="line"/>
      <point x="546" y="1316" type="line"/>
      <point x="761" y="1316" type="line"/>
      <point x="761" y="1097" type="line"/>
      <point x="752" y="917" type="line"/>
      <point x="899" y="928" type="line"/>
      <point x="1127" y="928" type="line"/>
      <point x="1127" y="715" type="line"/>
      <point x="899" y="715" type="line"/>
      <point x="752" y="724" type="line"/>
      <point x="761" y="546" type="line"/>
      <point x="761" y="333" type="line"/>
    </contour>
    <contour>
      <point x="186" y="13" type="line"/>
      <point x="186" y="210" type="line"/>
      <point x="1111" y="210" type="line"/>
      <point x="1111" y="13" type="line"/>
    </contour>
  </outline>
</glyph>
<glyph name="onesuperior" format="1">
  <advance width="1107"/>
  <unicode hex="00B9"/>
  <outline>
    <contour>
      <point x="206" y="718" type="line"/>
      <point x="206" y="833" type="line"/>
      <point x="471" y="868" type="line"/>
      <point x="471" y="1444" type="line"/>
      <point x="402" y="1434"/>
      <point x="299" y="1416"/>
      <point x="222" y="1402" type="curve"/>
      <point x="193" y="1532" type="line"/>
      <point x="324" y="1560"/>
      <point x="626" y="1684"/>
      <point x="674" y="1723" type="curve"/>
      <point x="742" y="1708" type="line"/>
      <point x="741" y="867" type="line"/>
      <point x="987" y="833" type="line"/>
      <point x="987" y="718" type="line"/>
    </contour>
  </outline>
</glyph>
<glyph name="threequarters" format="1">
  <advance width="2782"/>
  <unicode hex="00BE"/>
  <outline>
    <contour>
      <point x="822" y="-287" type="line"/>
      <point x="1609" y="1881" type="line"/>
      <point x="1787" y="1829" type="line"/>
      <point x="998" y="-343" type="line"/>
    </contour>
    <contour>
      <point x="290" y="664" type="curve"/>
      <point x="290" y="795" type="line"/>
      <point x="357" y="773"/>
      <point x="467" y="756"/>
      <point x="535" y="759" type="curve" smooth="yes"/>
      <point x="714" y="766"/>
      <point x="812" y="835"/>
      <point x="823" y="934" type="curve"/>
      <point x="827" y="1002"/>
      <point x="797" y="1098"/>
      <point x="657" y="1123" type="curve"/>
      <point x="441" y="1074" type="line"/>
      <point x="443" y="1218" type="line"/>
      <point x="630" y="1265"/>
      <point x="729" y="1325"/>
      <point x="762" y="1407" type="curve" smooth="yes"/>
      <point x="769" y="1427"/>
      <point x="770" y="1452"/>
      <point x="768" y="1476" type="curve" smooth="yes"/>
      <point x="765" y="1545"/>
      <point x="665" y="1569"/>
      <point x="606" y="1568" type="curve"/>
      <point x="522" y="1568"/>
      <point x="400" y="1535"/>
      <point x="313" y="1478" type="curve"/>
      <point x="252" y="1585" type="line"/>
      <point x="320" y="1646"/>
      <point x="498" y="1714"/>
      <point x="651" y="1719" type="curve" smooth="yes"/>
      <point x="921" y="1727"/>
      <point x="1027" y="1584"/>
      <point x="1027" y="1477" type="curve" smooth="yes"/>
      <point x="1027" y="1365"/>
      <point x="970" y="1280"/>
      <point x="818" y="1217" type="curve"/>
      <point x="1051" y="1206"/>
      <point x="1093" y="1015"/>
      <point x="1093" y="961" type="curve" smooth="yes"/>
      <point x="1093" y="780"/>
      <point x="934" y="612"/>
      <point x="607" y="612" type="curve" smooth="yes"/>
      <point x="473" y="612"/>
      <point x="364" y="636"/>
    </contour>
    <contour>
      <point x="1444" y="267" type="line"/>
      <point x="1976" y="1081" type="line"/>
      <point x="2087" y="1081" type="line"/>
      <point x="2211" y="949" type="line"/>
      <point x="1731" y="379" type="line"/>
      <point x="1654" y="284" type="line"/>
      <point x="2012" y="318" type="line"/>
      <point x="2020" y="539" type="line"/>
      <point x="2238" y="564" type="line"/>
      <point x="2238" y="339" type="line"/>
      <point x="2469" y="361" type="line"/>
      <point x="2470" y="142" type="line"/>
      <point x="2238" y="142" type="line"/>
      <point x="2238" y="-177" type="line"/>
      <point x="1995" y="-177" type="line"/>
      <point x="2006" y="142" type="line"/>
      <point x="1495" y="142" type="line"/>
    </contour>
  </outline>
</glyph>
<glyph name="questiondown" format="1">
  <advance width="1041"/>
  <unicode hex="00BF"/>
  <outline>
    <contour>
      <point x="470" y="1099" type="curve" smooth="yes"/>
      <point x="385" y="1099"/>
      <point x="301" y="1157"/>
      <point x="301" y="1258" type="curve" smooth="yes"/>
      <point x="301" y="1367"/>
      <point x="407" y="1450"/>
      <point x="500" y="1450" type="curve" smooth="yes"/>
      <point x="618" y="1450"/>
      <point x="672" y="1376"/>
      <point x="672" y="1286" type="curve" smooth="yes"/>
      <point x="672" y="1171"/>
      <point x="570" y="1099"/>
    </contour>
    <contour>
      <point x="120" y="296" type="curve"/>
      <point x="140" y="394"/>
      <point x="471" y="461"/>
      <point x="534" y="571" type="curve"/>
      <point x="568" y="648"/>
      <point x="481" y="826"/>
      <point x="443" y="908" type="curve"/>
      <point x="631" y="908" type="line"/>
      <point x="726" y="822"/>
      <point x="802" y="675"/>
      <point x="805" y="585" type="curve"/>
      <point x="808" y="394"/>
      <point x="307" y="349"/>
      <point x="279" y="254" type="curve"/>
      <point x="281" y="-35"/>
      <point x="556" y="-179"/>
      <point x="737" y="-182" type="curve" smooth="yes"/>
      <point x="829" y="-184"/>
      <point x="902" y="-177"/>
      <point x="938" y="-153" type="curve"/>
      <point x="946" y="-373" type="line"/>
      <point x="927" y="-400"/>
      <point x="813" y="-424"/>
      <point x="722" y="-422" type="curve" smooth="yes"/>
      <point x="136" y="-406"/>
      <point x="56" y="81"/>
    </contour>
  </outline>
</glyph>
<glyph name="Adieresis" format="1">
  <advance width="1554"/>
  <unicode hex="00C4"/>
  <outline>
    <contour>
      <point x="1020" y="1633" type="curve" smooth="yes"/>
      <point x="939" y="1633"/>
      <point x="863" y="1681"/>
      <point x="863" y="1766" type="curve" smooth="yes"/>
      <point x="863" y="1854"/>
      <point x="957" y="1920"/>
      <point x="1045" y="1920" type="curve" smooth="yes"/>
      <point x="1157" y="1920"/>
      <point x="1201" y="1862"/>
      <point x="1201" y="1788" type="curve" smooth="yes"/>
      <point x="1201" y="1693"/>
      <point x="1113" y="1633"/>
    </contour>
    <contour>
      <point x="508" y="1632" type="curve" smooth="yes"/>
      <point x="425" y="1632"/>
      <point x="353" y="1680"/>
      <point x="353" y="1764" type="curve" smooth="yes"/>
      <point x="353" y="1854"/>
      <point x="444" y="1920"/>
      <point x="533" y="1920" type="curve" smooth="yes"/>
      <point x="645" y="1920"/>
      <point x="693" y="1861"/>
      <point x="693" y="1787" type="curve" smooth="yes"/>
      <point x="693" y="1693"/>
      <point x="602" y="1632"/>
    </contour>
    <contour>
      <point x="4" y="0" type="line"/>
      <point x="4" y="116" type="line"/>
      <point x="141" y="152" type="line"/>
      <point x="646" y="1553" type="line"/>
      <point x="908" y="1553" type="line"/>
      <point x="1395" y="152" type="line"/>
      <point x="1550" y="115" type="line"/>
      <point x="1550" y="0" type="line"/>
      <point x="934" y="0" type="line"/>
      <point x="934" y="115" type="line"/>
      <point x="1081" y="154" type="line"/>
      <point x="1012" y="379" type="line"/>
      <point x="442" y="379" type="line"/>
      <point x="371" y="156" type="line"/>
      <point x="528" y="116" type="line"/>
      <point x="528" y="0" type="line"/>
    </contour>
    <contour>
      <point x="492" y="535" type="line"/>
      <point x="963" y="535" type="line"/>
      <point x="817" y="1006" type="line"/>
      <point x="734" y="1292" type="line"/>
    </contour>
  </outline>
</glyph>
<glyph name="AE" format="1">
  <advance width="1938"/>
  <unicode hex="00C6"/>
  <outline>
    <contour>
      <point x="4" y="0" type="line"/>
      <point x="4" y="117" type="line"/>
      <point x="134" y="149" type="line"/>
      <point x="700" y="1553" type="line"/>
      <point x="1723" y="1553" type="line"/>
      <point x="1756" y="1236" type="line"/>
      <point x="1604" y="1235" type="line"/>
      <point x="1547" y="1393" type="line"/>
      <point x="1039" y="1411" type="line"/>
      <point x="1199" y="885" type="line"/>
      <point x="1509" y="892" type="line"/>
      <point x="1543" y="1045" type="line"/>
      <point x="1673" y="1045" type="line"/>
      <point x="1673" y="582" type="line"/>
      <point x="1543" y="582" type="line"/>
      <point x="1507" y="726" type="line"/>
      <point x="1244" y="737" type="line"/>
      <point x="1429" y="131" type="line"/>
      <point x="1663" y="156" type="line"/>
      <point x="1769" y="352" type="line"/>
      <point x="1905" y="314" type="line"/>
      <point x="1857" y="0" type="line"/>
      <point x="958" y="0" type="line"/>
      <point x="958" y="116" type="line"/>
      <point x="1118" y="153" type="line"/>
      <point x="1047" y="388" type="line"/>
      <point x="438" y="388" type="line"/>
      <point x="350" y="153" type="line"/>
      <point x="522" y="117" type="line"/>
      <point x="522" y="0" type="line"/>
    </contour>
    <contour>
      <point x="499" y="549" type="line"/>
      <point x="999" y="549" type="line"/>
      <point x="821" y="1144" type="line"/>
      <point x="786" y="1311" type="line"/>
    </contour>
  </outline>
</glyph>
<glyph name="Egrave" format="1">
  <advance width="1380"/>
  <unicode hex="00C8"/>
  <outline>
    <contour>
      <point x="764" y="1599" type="line"/>
      <point x="685" y="1607"/>
      <point x="446" y="1664"/>
      <point x="328" y="1747" type="curve"/>
      <point x="500" y="1920" type="line"/>
      <point x="844" y="1683" type="line"/>
    </contour>
    <contour>
      <point x="101" y="0" type="line"/>
      <point x="101" y="116" type="line"/>
      <point x="258" y="152" type="line"/>
      <point x="258" y="1397" type="line"/>
      <point x="106" y="1418" type="line"/>
      <point x="106" y="1553" type="line"/>
      <point x="1199" y="1553" type="line"/>
      <point x="1229" y="1235" type="line"/>
      <point x="1065" y="1235" type="line"/>
      <point x="992" y="1399" type="line"/>
      <point x="543" y="1416" type="line"/>
      <point x="543" y="870" type="line"/>
      <point x="849" y="878" type="line"/>
      <point x="893" y="1031" type="line"/>
      <point x="1040" y="1031" type="line"/>
      <point x="1040" y="568" type="line"/>
      <point x="893" y="568" type="line"/>
      <point x="849" y="724" type="line"/>
      <point x="543" y="730" type="line"/>
      <point x="543" y="137" type="line"/>
      <point x="1049" y="162" type="line"/>
      <point x="1165" y="363" type="line"/>
      <point x="1325" y="332" type="line"/>
      <point x="1274" y="0" type="line"/>
    </contour>
  </outline>
</glyph>
<glyph name="Icircumflex" format="1">
  <advance width="811"/>
  <unicode hex="00CE"/>
  <outline>
    <contour>
      <point x="129" y="1605" type="line"/>
      <point x="32" y="1667" type="line"/>
      <point x="297" y="1920" type="line"/>
      <point x="511" y="1920" type="line"/>
      <point x="775" y="1668" type="line"/>
      <point x="674" y="1605" type="line"/>
      <point x="405" y="1751" type="line"/>
    </contour>
    <contour>
      <point x="77" y="0" type="line"/>
      <point x="77" y="116" type="line"/>
      <point x="261" y="153" type="line"/>
      <point x="261" y="1397" type="line"/>
      <point x="78" y="1418" type="line"/>
      <point x="78" y="1553" type="line"/>
      <point x="726" y="1553" type="line"/>
      <point x="726" y="1418" type="line"/>
      <point x="550" y="1396" type="line"/>
      <point x="550" y="154" type="line"/>
      <point x="736" y="116" type="line"/>
      <point x="736" y="0" type="line"/>
    </contour>
  </outline>
</glyph>
<glyph name="Eth" format="1">
  <advance width="1603"/>
  <unicode hex="00D0"/>
  <outline>
    <contour>
      <point x="97" y="0" type="curve"/>
      <point x="97" y="116" type="line"/>
      <point x="252" y="152" type="line"/>
      <point x="252" y="713" type="line"/>
      <point x="71" y="713" type="line"/>
      <point x="71" y="894" type="line"/>
      <point x="252" y="894" type="line"/>
      <point x="252" y="1398" type="line"/>
      <point x="101" y="1418" type="line"/>
      <point x="101" y="1553" type="line"/>
      <point x="401" y="1553" type="line" smooth="yes"/>
      <point x="527" y="1553"/>
      <point x="635" y="1567"/>
      <point x="763" y="1567" type="curve" smooth="yes"/>
      <point x="1298" y="1568"/>
      <point x="1530" y="1269"/>
      <point x="1530" y="820" type="curve" smooth="yes"/>
      <point x="1530" y="296"/>
      <point x="1193" y="-15"/>
      <point x="732" y="-10" type="curve" smooth="yes"/>
      <point x="633" y="-9"/>
      <point x="506" y="1"/>
      <point x="405" y="1" type="curve" smooth="yes"/>
      <point x="303" y="1"/>
      <point x="199" y="0"/>
    </contour>
    <contour>
      <point x="540" y="159" type="line"/>
      <point x="604" y="131"/>
      <point x="689" y="121"/>
      <point x="794" y="128" type="curve" smooth="yes"/>
      <point x="1034" y="142"/>
      <point x="1229" y="367"/>
      <point x="1229" y="757" type="curve" smooth="yes"/>
      <point x="1229" y="1210"/>
      <point x="1047" y="1429"/>
      <point x="723" y="1428" type="curve" smooth="yes"/>
      <point x="642" y="1427"/>
      <point x="583" y="1418"/>
      <point x="540" y="1403" type="curve"/>
      <point x="540" y="894" type="line"/>
      <point x="806" y="894" type="line"/>
      <point x="806" y="713" type="line"/>
      <point x="540" y="713" type="line"/>
    </contour>
  </outline>
</glyph>
<glyph name="Ntilde" format="1">
  <advance width="1676"/>
  <unicode hex="00D1"/>
  <outline>
    <contour>
      <point x="508" y="1653" type="curve"/>
      <point x="436" y="1728" type="line"/>
      <point x="482" y="1836"/>
      <point x="633" y="1920"/>
      <point x="730" y="1920" type="curve" smooth="yes"/>
      <point x="870" y="1920"/>
      <point x="919" y="1809"/>
      <point x="1009" y="1809" type="curve" smooth="yes"/>
      <point x="1083" y="1809"/>
      <point x="1140" y="1844"/>
      <point x="1183" y="1884" type="curve"/>
      <point x="1256" y="1797" type="line"/>
      <point x="1209" y="1690"/>
      <point x="1064" y="1615"/>
      <point x="966" y="1615" type="curve" smooth="yes"/>
      <point x="827" y="1615"/>
      <point x="774" y="1730"/>
      <point x="683" y="1730" type="curve" smooth="yes"/>
      <point x="619" y="1730"/>
      <point x="552" y="1692"/>
    </contour>
    <contour>
      <point x="81" y="0" type="line"/>
      <point x="81" y="116" type="line"/>
      <point x="244" y="155" type="line"/>
      <point x="244" y="1381" type="line"/>
      <point x="87" y="1401" type="line"/>
      <point x="87" y="1553" type="line"/>
      <point x="530" y="1553" type="line"/>
      <point x="1161" y="485" type="line"/>
      <point x="1272" y="226" type="line"/>
      <point x="1272" y="1379" type="line"/>
      <point x="1099" y="1403" type="line"/>
      <point x="1099" y="1553" type="line"/>
      <point x="1612" y="1553" type="line"/>
      <point x="1612" y="1403" type="line"/>
      <point x="1463" y="1382" type="line"/>
      <point x="1463" y="0" type="line"/>
      <point x="1152" y="0" type="line"/>
      <point x="557" y="970" type="line"/>
      <point x="436" y="1249" type="line"/>
      <point x="436" y="887"/>
      <point x="437" y="516"/>
      <point x="437" y="157" type="curve"/>
      <point x="636" y="116" type="line"/>
      <point x="636" y="0" type="line"/>
    </contour>
  </outline>
</glyph>
<glyph name="Otilde" format="1">
  <advance width="1580"/>
  <unicode hex="00D5"/>
  <outline>
    <contour>
      <point x="460" y="1653" type="curve"/>
      <point x="388" y="1728" type="line"/>
      <point x="434" y="1836"/>
      <point x="585" y="1920"/>
      <point x="682" y="1920" type="curve" smooth="yes"/>
      <point x="822" y="1920"/>
      <point x="871" y="1809"/>
      <point x="961" y="1809" type="curve" smooth="yes"/>
      <point x="1035" y="1809"/>
      <point x="1092" y="1844"/>
      <point x="1135" y="1884" type="curve"/>
      <point x="1208" y="1797" type="line"/>
      <point x="1161" y="1690"/>
      <point x="1016" y="1615"/>
      <point x="918" y="1615" type="curve" smooth="yes"/>
      <point x="779" y="1615"/>
      <point x="726" y="1730"/>
      <point x="635" y="1730" type="curve" smooth="yes"/>
      <point x="571" y="1730"/>
      <point x="504" y="1692"/>
    </contour>
    <contour>
      <point x="75" y="753" type="curve" smooth="yes"/>
      <point x="86" y="1260"/>
      <point x="427" y="1562"/>
      <point x="811" y="1567" type="curve" smooth="yes"/>
      <point x="1238" y="1572"/>
      <point x="1514" y="1239"/>
      <point x="1505" y="789" type="curve" smooth="yes"/>
      <point x="1494" y="283"/>
      <point x="1185" y="-25"/>
      <point x="786" y="-28" type="curve" smooth="yes"/>
      <point x="346" y="-32"/>
      <point x="66" y="307"/>
    </contour>
    <contour>
      <point x="800" y="108" type="curve" smooth="yes"/>
      <point x="1075" y="108"/>
      <point x="1189" y="347"/>
      <point x="1189" y="788" type="curve" smooth="yes"/>
      <point x="1189" y="1087"/>
      <point x="1068" y="1428"/>
      <point x="798" y="1428" type="curve" smooth="yes"/>
      <point x="521" y="1428"/>
      <point x="391" y="1184"/>
      <point x="391" y="754" type="curve" smooth="yes"/>
      <point x="391" y="470"/>
      <point x="521" y="108"/>
    </contour>
  </outline>
</glyph>
<glyph name="Odieresis" format="1">
  <advance width="1580"/>
  <unicode hex="00D6"/>
  <outline>
    <contour>
      <point x="1045" y="1633" type="curve" smooth="yes"/>
      <point x="964" y="1633"/>
      <point x="888" y="1681"/>
      <point x="888" y="1766" type="curve" smooth="yes"/>
      <point x="888" y="1854"/>
      <point x="982" y="1920"/>
      <point x="1070" y="1920" type="curve" smooth="yes"/>
      <point x="1182" y="1920"/>
      <point x="1226" y="1862"/>
      <point x="1226" y="1788" type="curve" smooth="yes"/>
      <point x="1226" y="1693"/>
      <point x="1138" y="1633"/>
    </contour>
    <contour>
      <point x="533" y="1632" type="curve" smooth="yes"/>
      <point x="450" y="1632"/>
      <point x="378" y="1680"/>
      <point x="378" y="1764" type="curve" smooth="yes"/>
      <point x="378" y="1854"/>
      <point x="469" y="1920"/>
      <point x="558" y="1920" type="curve" smooth="yes"/>
      <point x="670" y="1920"/>
      <point x="718" y="1861"/>
      <point x="718" y="1787" type="curve" smooth="yes"/>
      <point x="718" y="1693"/>
      <point x="627" y="1632"/>
    </contour>
    <contour>
      <point x="75" y="753" type="curve" smooth="yes"/>
      <point x="86" y="1260"/>
      <point x="427" y="1562"/>
      <point x="811" y="1567" type="curve" smooth="yes"/>
      <point x="1238" y="1572"/>
      <point x="1514" y="1239"/>
      <point x="1505" y="789" type="curve" smooth="yes"/>
      <point x="1494" y="283"/>
      <point x="1185" y="-25"/>
      <point x="786" y="-28" type="curve" smooth="yes"/>
      <point x="346" y="-32"/>
      <point x="66" y="307"/>
    </contour>
    <contour>
      <point x="800" y="108" type="curve" smooth="yes"/>
      <point x="1075" y="108"/>
      <point x="1189" y="347"/>
      <point x="1189" y="788" type="curve" smooth="yes"/>
      <point x="1189" y="1087"/>
      <point x="1068" y="1428"/>
      <point x="798" y="1428" type="curve" smooth="yes"/>
      <point x="521" y="1428"/>
      <point x="391" y="1184"/>
      <point x="391" y="754" type="curve" smooth="yes"/>
      <point x="391" y="470"/>
      <point x="521" y="108"/>
    </contour>
  </outline>
</glyph>
<glyph name="multiply" format="1">
  <advance width="1344"/>
  <unicode hex="00D7"/>
  <outline>
    <contour>
      <point x="334" y="321" type="line"/>
      <point x="183" y="476" type="line"/>
      <point x="536" y="815" type="line"/>
      <point x="183" y="1153" type="line"/>
      <point x="333" y="1309" type="line"/>
      <point x="671" y="951" type="line"/>
      <point x="1009" y="1309" type="line"/>
      <point x="1159" y="1153" type="line"/>
      <point x="806" y="815" type="line"/>
      <point x="1159" y="476" type="line"/>
      <point x="1010" y="321" type="line"/>
      <point x="672" y="679" type="line"/>
    </contour>
  </outline>
</glyph>
<glyph name="Uacute" format="1">
  <advance width="1590"/>
  <unicode hex="00DA"/>
  <outline>
    <contour>
      <point x="814" y="1599" type="curve"/>
      <point x="733" y="1683" type="line"/>
      <point x="1089" y="1920" type="line"/>
      <point x="1261" y="1747" type="line"/>
      <point x="1143" y="1664"/>
      <point x="893" y="1607"/>
    </contour>
    <contour>
      <point x="190" y="641" type="curve"/>
      <point x="190" y="885"/>
      <point x="192" y="1148"/>
      <point x="193" y="1396" type="curve"/>
      <point x="34" y="1418" type="line"/>
      <point x="34" y="1553" type="line"/>
      <point x="652" y="1553" type="line"/>
      <point x="652" y="1418" type="line"/>
      <point x="478" y="1396" type="line"/>
      <point x="478" y="630" type="line" smooth="yes"/>
      <point x="478" y="206"/>
      <point x="665" y="117"/>
      <point x="869" y="117" type="curve" smooth="yes"/>
      <point x="1094" y="117"/>
      <point x="1223" y="283"/>
      <point x="1222" y="675" type="curve" smooth="yes"/>
      <point x="1221" y="1394" type="line"/>
      <point x="1047" y="1418" type="line"/>
      <point x="1047" y="1553" type="line"/>
      <point x="1564" y="1553" type="line"/>
      <point x="1564" y="1418" type="line"/>
      <point x="1414" y="1394" type="line"/>
      <point x="1414" y="676" type="line" smooth="yes"/>
      <point x="1414" y="149"/>
      <point x="1151" y="-28"/>
      <point x="830" y="-28" type="curve" smooth="yes"/>
      <point x="380" y="-28"/>
      <point x="188" y="196"/>
    </contour>
  </outline>
</glyph>
<glyph name="Ucircumflex" format="1">
  <advance width="1590"/>
  <unicode hex="00DB"/>
  <outline>
    <contour>
      <point x="572" y="1605" type="line"/>
      <point x="475" y="1667" type="line"/>
      <point x="741" y="1920" type="line"/>
      <point x="954" y="1920" type="line"/>
      <point x="1218" y="1668" type="line"/>
      <point x="1117" y="1605" type="line"/>
      <point x="849" y="1751" type="line"/>
    </contour>
    <contour>
      <point x="190" y="641" type="curve"/>
      <point x="190" y="885"/>
      <point x="192" y="1148"/>
      <point x="193" y="1396" type="curve"/>
      <point x="34" y="1418" type="line"/>
      <point x="34" y="1553" type="line"/>
      <point x="652" y="1553" type="line"/>
      <point x="652" y="1418" type="line"/>
      <point x="478" y="1396" type="line"/>
      <point x="478" y="630" type="line" smooth="yes"/>
      <point x="478" y="206"/>
      <point x="665" y="117"/>
      <point x="869" y="117" type="curve" smooth="yes"/>
      <point x="1094" y="117"/>
      <point x="1223" y="283"/>
      <point x="1222" y="675" type="curve" smooth="yes"/>
      <point x="1221" y="1394" type="line"/>
      <point x="1047" y="1418" type="line"/>
      <point x="1047" y="1553" type="line"/>
      <point x="1564" y="1553" type="line"/>
      <point x="1564" y="1418" type="line"/>
      <point x="1414" y="1394" type="line"/>
      <point x="1414" y="676" type="line" smooth="yes"/>
      <point x="1414" y="149"/>
      <point x="1151" y="-28"/>
      <point x="830" y="-28" type="curve" smooth="yes"/>
      <point x="380" y="-28"/>
      <point x="188" y="196"/>
    </contour>
  </outline>
</glyph>
<glyph name="Udieresis" format="1">
  <advance width="1590"/>
  <unicode hex="00DC"/>
  <outline>
    <contour>
      <point x="1089" y="1633" type="curve" smooth="yes"/>
      <point x="1008" y="1633"/>
      <point x="932" y="1681"/>
      <point x="932" y="1766" type="curve" smooth="yes"/>
      <point x="932" y="1854"/>
      <point x="1026" y="1920"/>
      <point x="1114" y="1920" type="curve" smooth="yes"/>
      <point x="1226" y="1920"/>
      <point x="1270" y="1862"/>
      <point x="1270" y="1788" type="curve" smooth="yes"/>
      <point x="1270" y="1693"/>
      <point x="1182" y="1633"/>
    </contour>
    <contour>
      <point x="577" y="1632" type="curve" smooth="yes"/>
      <point x="494" y="1632"/>
      <point x="422" y="1680"/>
      <point x="422" y="1764" type="curve" smooth="yes"/>
      <point x="422" y="1854"/>
      <point x="513" y="1920"/>
      <point x="603" y="1920" type="curve" smooth="yes"/>
      <point x="714" y="1920"/>
      <point x="762" y="1861"/>
      <point x="762" y="1787" type="curve" smooth="yes"/>
      <point x="762" y="1693"/>
      <point x="672" y="1632"/>
    </contour>
    <contour>
      <point x="190" y="641" type="curve"/>
      <point x="190" y="885"/>
      <point x="192" y="1148"/>
      <point x="193" y="1396" type="curve"/>
      <point x="34" y="1418" type="line"/>
      <point x="34" y="1553" type="line"/>
      <point x="652" y="1553" type="line"/>
      <point x="652" y="1418" type="line"/>
      <point x="478" y="1396" type="line"/>
      <point x="478" y="630" type="line" smooth="yes"/>
      <point x="478" y="206"/>
      <point x="665" y="117"/>
      <point x="869" y="117" type="curve" smooth="yes"/>
      <point x="1094" y="117"/>
      <point x="1223" y="283"/>
      <point x="1222" y="675" type="curve" smooth="yes"/>
      <point x="1221" y="1394" type="line"/>
      <point x="1047" y="1418" type="line"/>
      <point x="1047" y="1553" type="line"/>
      <point x="1564" y="1553" type="line"/>
      <point x="1564" y="1418" type="line"/>
      <point x="1414" y="1394" type="line"/>
      <point x="1414" y="676" type="line" smooth="yes"/>
      <point x="1414" y="149"/>
      <point x="1151" y="-28"/>
      <point x="830" y="-28" type="curve" smooth="yes"/>
      <point x="380" y="-28"/>
      <point x="188" y="196"/>
    </contour>
  </outline>
</glyph>
<glyph name="Yacute" format="1">
  <advance width="1419"/>
  <unicode hex="00DD"/>
  <outline>
    <contour>
      <point x="707" y="1599" type="curve"/>
      <point x="627" y="1683" type="line"/>
      <point x="982" y="1920" type="line"/>
      <point x="1155" y="1747" type="line"/>
      <point x="1037" y="1664"/>
      <point x="786" y="1607"/>
    </contour>
    <contour>
      <point x="369" y="0" type="line"/>
      <point x="369" y="116" type="line"/>
      <point x="594" y="156" type="line"/>
      <point x="594" y="564" type="line"/>
      <point x="122" y="1399" type="line"/>
      <point x="10" y="1418" type="line"/>
      <point x="10" y="1553" type="line"/>
      <point x="580" y="1553" type="line"/>
      <point x="580" y="1419" type="line"/>
      <point x="455" y="1399" type="line"/>
      <point x="734" y="843" type="line"/>
      <point x="770" y="741" type="line"/>
      <point x="809" y="849" type="line"/>
      <point x="1053" y="1395" type="line"/>
      <point x="891" y="1418" type="line"/>
      <point x="891" y="1463"/>
      <point x="890" y="1508"/>
      <point x="890" y="1553" type="curve"/>
      <point x="1409" y="1553" type="line"/>
      <point x="1409" y="1418" type="line"/>
      <point x="1277" y="1384" type="line"/>
      <point x="880" y="584" type="line"/>
      <point x="880" y="157" type="line"/>
      <point x="1125" y="116" type="line"/>
      <point x="1125" y="0" type="line"/>
    </contour>
  </outline>
</glyph>
<glyph name="Thorn" format="1">
  <advance width="1342"/>
  <unicode hex="00DE"/>
  <outline>
    <contour>
      <point x="78" y="0" type="line"/>
      <point x="78" y="116" type="line"/>
      <point x="252" y="154" type="line"/>
      <point x="252" y="1397" type="line"/>
      <point x="57" y="1418" type="line"/>
      <point x="57" y="1553" type="line"/>
      <point x="726" y="1553" type="line"/>
      <point x="726" y="1418" type="line"/>
      <point x="537" y="1396" type="line"/>
      <point x="537" y="1219" type="line"/>
      <point x="611" y="1228"/>
      <point x="698" y="1239"/>
      <point x="775" y="1239" type="curve" smooth="yes"/>
      <point x="1103" y="1239"/>
      <point x="1321" y="1117"/>
      <point x="1321" y="821" type="curve" smooth="yes"/>
      <point x="1321" y="492"/>
      <point x="1071" y="315"/>
      <point x="733" y="318" type="curve" smooth="yes"/>
      <point x="646" y="319"/>
      <point x="578" y="321"/>
      <point x="537" y="324" type="curve"/>
      <point x="537" y="153" type="line"/>
      <point x="797" y="116" type="line"/>
      <point x="797" y="0" type="line"/>
    </contour>
    <contour>
      <point x="537" y="463" type="line"/>
      <point x="585" y="456"/>
      <point x="650" y="455"/>
      <point x="707" y="455" type="curve" smooth="yes"/>
      <point x="885" y="455"/>
      <point x="1026" y="561"/>
      <point x="1026" y="807" type="curve" smooth="yes"/>
      <point x="1026" y="1006"/>
      <point x="886" y="1099"/>
      <point x="680" y="1094" type="curve" smooth="yes"/>
      <point x="613" y="1092"/>
      <point x="573" y="1086"/>
      <point x="537" y="1078" type="curve"/>
    </contour>
  </outline>
</glyph>
<glyph name="agrave" format="1">
  <advance width="1191"/>
  <unicode hex="00E0"/>
  <outline>
    <contour>
      <point x="704" y="1338" type="line"/>
      <point x="566" y="1358"/>
      <point x="355" y="1510"/>
      <point x="263" y="1646" type="curve"/>
      <point x="471" y="1821" type="line"/>
      <point x="777" y="1412" type="line"/>
    </contour>
    <contour>
      <point x="88" y="363" type="curve"/>
      <point x="133" y="616"/>
      <point x="544" y="686"/>
      <point x="737" y="686" type="curve"/>
      <point x="737" y="724" type="line" smooth="yes"/>
      <point x="737" y="936"/>
      <point x="642" y="980"/>
      <point x="498" y="980" type="curve" smooth="yes"/>
      <point x="366" y="980"/>
      <point x="242" y="930"/>
      <point x="184" y="898" type="curve"/>
      <point x="130" y="1025" type="line"/>
      <point x="197" y="1080"/>
      <point x="386" y="1146"/>
      <point x="591" y="1146" type="curve" smooth="yes"/>
      <point x="835" y="1146"/>
      <point x="1022" y="1065"/>
      <point x="1022" y="754" type="curve" smooth="yes"/>
      <point x="1021" y="114" type="line"/>
      <point x="1150" y="114" type="line"/>
      <point x="1150" y="25" type="line"/>
      <point x="1092" y="-13"/>
      <point x="995" y="-26"/>
      <point x="921" y="-26" type="curve" smooth="yes"/>
      <point x="871" y="-26"/>
      <point x="768" y="-14"/>
      <point x="768" y="87" type="curve" smooth="yes"/>
      <point x="768" y="96" type="line"/>
      <point x="700" y="28"/>
      <point x="603" y="-26"/>
      <point x="460" y="-26" type="curve" smooth="yes"/>
      <point x="171" y="-26"/>
      <point x="50" y="159"/>
    </contour>
    <contour>
      <point x="368" y="328" type="curve" smooth="yes"/>
      <point x="368" y="186"/>
      <point x="449" y="128"/>
      <point x="593" y="139" type="curve" smooth="yes"/>
      <point x="650" y="144"/>
      <point x="698" y="174"/>
      <point x="736" y="205" type="curve"/>
      <point x="736" y="322"/>
      <point x="737" y="438"/>
      <point x="737" y="555" type="curve"/>
      <point x="593" y="555"/>
      <point x="368" y="511"/>
    </contour>
  </outline>
</glyph>
<glyph name="atilde" format="1">
  <advance width="1191"/>
  <unicode hex="00E3"/>
  <outline>
    <contour>
      <point x="238" y="1390" type="curve"/>
      <point x="166" y="1477" type="line"/>
      <point x="213" y="1584"/>
      <point x="363" y="1671"/>
      <point x="461" y="1671" type="curve" smooth="yes"/>
      <point x="600" y="1671"/>
      <point x="649" y="1555"/>
      <point x="740" y="1555" type="curve" smooth="yes"/>
      <point x="813" y="1555"/>
      <point x="871" y="1599"/>
      <point x="914" y="1637" type="curve"/>
      <point x="987" y="1550" type="line"/>
      <point x="940" y="1443"/>
      <point x="794" y="1354"/>
      <point x="696" y="1354" type="curve" smooth="yes"/>
      <point x="557" y="1354"/>
      <point x="505" y="1472"/>
      <point x="413" y="1472" type="curve" smooth="yes"/>
      <point x="346" y="1472"/>
      <point x="282" y="1427"/>
    </contour>
    <contour>
      <point x="88" y="363" type="curve"/>
      <point x="133" y="616"/>
      <point x="544" y="686"/>
      <point x="737" y="686" type="curve"/>
      <point x="737" y="724" type="line" smooth="yes"/>
      <point x="737" y="936"/>
      <point x="642" y="980"/>
      <point x="498" y="980" type="curve" smooth="yes"/>
      <point x="366" y="980"/>
      <point x="242" y="930"/>
      <point x="184" y="898" type="curve"/>
      <point x="130" y="1025" type="line"/>
      <point x="197" y="1080"/>
      <point x="386" y="1146"/>
      <point x="591" y="1146" type="curve" smooth="yes"/>
      <point x="835" y="1146"/>
      <point x="1022" y="1065"/>
      <point x="1022" y="754" type="curve" smooth="yes"/>
      <point x="1021" y="114" type="line"/>
      <point x="1150" y="114" type="line"/>
      <point x="1150" y="25" type="line"/>
      <point x="1092" y="-13"/>
      <point x="995" y="-26"/>
      <point x="921" y="-26" type="curve" smooth="yes"/>
      <point x="871" y="-26"/>
      <point x="768" y="-14"/>
      <point x="768" y="87" type="curve" smooth="yes"/>
      <point x="768" y="96" type="line"/>
      <point x="700" y="28"/>
      <point x="603" y="-26"/>
      <point x="460" y="-26" type="curve" smooth="yes"/>
      <point x="171" y="-26"/>
      <point x="50" y="159"/>
    </contour>
    <contour>
      <point x="368" y="328" type="curve" smooth="yes"/>
      <point x="368" y="186"/>
      <point x="449" y="128"/>
      <point x="593" y="139" type="curve" smooth="yes"/>
      <point x="650" y="144"/>
      <point x="698" y="174"/>
      <point x="736" y="205" type="curve"/>
      <point x="736" y="322"/>
      <point x="737" y="438"/>
      <point x="737" y="555" type="curve"/>
      <point x="593" y="555"/>
      <point x="368" y="511"/>
    </contour>
  </outline>
</glyph>
<glyph name="aring" format="1">
  <advance width="1191"/>
  <unicode hex="00E5"/>
  <outline>
    <contour>
      <point x="568" y="1300" type="curve" smooth="yes"/>
      <point x="417" y="1300"/>
      <point x="293" y="1417"/>
      <point x="293" y="1560" type="curve" smooth="yes"/>
      <point x="293" y="1704"/>
      <point x="417" y="1821"/>
      <point x="568" y="1821" type="curve" smooth="yes"/>
      <point x="721" y="1821"/>
      <point x="845" y="1701"/>
      <point x="845" y="1560" type="curve" smooth="yes"/>
      <point x="845" y="1417"/>
      <point x="721" y="1300"/>
    </contour>
    <contour>
      <point x="568" y="1427" type="curve" smooth="yes"/>
      <point x="643" y="1427"/>
      <point x="701" y="1484"/>
      <point x="701" y="1560" type="curve" smooth="yes"/>
      <point x="701" y="1632"/>
      <point x="643" y="1693"/>
      <point x="568" y="1693" type="curve" smooth="yes"/>
      <point x="492" y="1693"/>
      <point x="435" y="1634"/>
      <point x="435" y="1560" type="curve" smooth="yes"/>
      <point x="435" y="1484"/>
      <point x="492" y="1427"/>
    </contour>
    <contour>
      <point x="88" y="363" type="curve"/>
      <point x="133" y="616"/>
      <point x="544" y="686"/>
      <point x="737" y="686" type="curve"/>
      <point x="737" y="724" type="line" smooth="yes"/>
      <point x="737" y="936"/>
      <point x="642" y="980"/>
      <point x="498" y="980" type="curve" smooth="yes"/>
      <point x="366" y="980"/>
      <point x="242" y="930"/>
      <point x="184" y="898" type="curve"/>
      <point x="130" y="1025" type="line"/>
      <point x="197" y="1080"/>
      <point x="386" y="1146"/>
      <point x="591" y="1146" type="curve" smooth="yes"/>
      <point x="835" y="1146"/>
      <point x="1022" y="1065"/>
      <point x="1022" y="754" type="curve" smooth="yes"/>
      <point x="1021" y="114" type="line"/>
      <point x="1150" y="114" type="line"/>
      <point x="1150" y="25" type="line"/>
      <point x="1092" y="-13"/>
      <point x="995" y="-26"/>
      <point x="921" y="-26" type="curve" smooth="yes"/>
      <point x="871" y="-26"/>
      <point x="768" y="-14"/>
      <point x="768" y="87" type="curve" smooth="yes"/>
      <point x="768" y="96" type="line"/>
      <point x="700" y="28"/>
      <point x="603" y="-26"/>
      <point x="460" y="-26" type="curve" smooth="yes"/>
      <point x="171" y="-26"/>
      <point x="50" y="159"/>
    </contour>
    <contour>
      <point x="368" y="328" type="curve" smooth="yes"/>
      <point x="368" y="186"/>
      <point x="449" y="128"/>
      <point x="593" y="139" type="curve" smooth="yes"/>
      <point x="650" y="144"/>
      <point x="698" y="174"/>
      <point x="736" y="205" type="curve"/>
      <point x="736" y="322"/>
      <point x="737" y="438"/>
      <point x="737" y="555" type="curve"/>
      <point x="593" y="555"/>
      <point x="368" y="511"/>
    </contour>
  </outline>
</glyph>
<glyph name="ccedilla" format="1">
  <advance width="1095"/>
  <unicode hex="00E7"/>
  <outline>
    <contour>
      <point x="525" y="-19" type="curve"/>
      <point x="242" y="17"/>
      <point x="89" y="239"/>
      <point x="87" y="531" type="curve" smooth="yes"/>
      <point x="85" y="910"/>
      <point x="345" y="1138"/>
      <point x="675" y="1150" type="curve" smooth="yes"/>
      <point x="801" y="1154"/>
      <point x="952" y="1133"/>
      <point x="1009" y="1099" type="curve"/>
      <point x="1009" y="815" type="line"/>
      <point x="865" y="815" type="line"/>
      <point x="798" y="977" type="line"/>
      <point x="758" y="1004"/>
      <point x="697" y="1011"/>
      <point x="652" y="1011" type="curve" smooth="yes"/>
      <point x="498" y="1011"/>
      <point x="380" y="877"/>
      <point x="375" y="625" type="curve" smooth="yes"/>
      <point x="367" y="285"/>
      <point x="543" y="146"/>
      <point x="717" y="146" type="curve" smooth="yes"/>
      <point x="830" y="146"/>
      <point x="949" y="177"/>
      <point x="1001" y="213" type="curve"/>
      <point x="1046" y="103" type="line"/>
      <point x="964" y="33"/>
      <point x="832" y="-12"/>
      <point x="681" y="-22" type="curve"/>
      <point x="679" y="-55"/>
      <point x="680" y="-98"/>
      <point x="683" y="-130" type="curve"/>
      <point x="859" y="-139"/>
      <point x="915" y="-248"/>
      <point x="915" y="-321" type="curve" smooth="yes"/>
      <point x="915" y="-453"/>
      <point x="809" y="-523"/>
      <point x="658" y="-530" type="curve" smooth="yes"/>
      <point x="537" y="-536"/>
      <point x="465" y="-515"/>
      <point x="423" y="-504" type="curve"/>
      <point x="423" y="-376" type="line"/>
      <point x="455" y="-384"/>
      <point x="523" y="-391"/>
      <point x="544" y="-391" type="curve" smooth="yes"/>
      <point x="600" y="-391"/>
      <point x="643" y="-374"/>
      <point x="643" y="-311" type="curve" smooth="yes"/>
      <point x="643" y="-263"/>
      <point x="606" y="-235"/>
      <point x="540" y="-235" type="curve" smooth="yes"/>
      <point x="525" y="-235"/>
      <point x="490" y="-238"/>
      <point x="486" y="-239" type="curve"/>
      <point x="487" y="-182"/>
      <point x="504" y="-82"/>
    </contour>
  </outline>
</glyph>
<glyph name="iacute" format="1">
  <advance width="720"/>
  <unicode hex="00ED"/>
  <outline>
    <contour>
      <point x="307" y="1338" type="curve"/>
      <point x="234" y="1412" type="line"/>
      <point x="540" y="1820" type="line"/>
      <point x="748" y="1645" type="line"/>
      <point x="658" y="1506"/>
      <point x="451" y="1390"/>
    </contour>
    <contour>
      <point x="93" y="0" type="line"/>
      <point x="93" y="114" type="line"/>
      <point x="243" y="140" type="line"/>
      <point x="243" y="846" type="line"/>
      <point x="111" y="959" type="line"/>
      <point x="111" y="1039" type="line"/>
      <point x="456" y="1149" type="line"/>
      <point x="523" y="1126" type="line"/>
      <point x="523" y="138" type="line"/>
      <point x="673" y="114" type="line"/>
      <point x="673" y="0" type="line"/>
    </contour>
  </outline>
</glyph>
<glyph name="idieresis" format="1">
  <advance width="720"/>
  <unicode hex="00EF"/>
  <outline>
    <contour>
      <point x="612" y="1363" type="curve" smooth="yes"/>
      <point x="531" y="1363"/>
      <point x="456" y="1410"/>
      <point x="456" y="1495" type="curve" smooth="yes"/>
      <point x="456" y="1583"/>
      <point x="549" y="1648"/>
      <point x="637" y="1648" type="curve" smooth="yes"/>
      <point x="748" y="1648"/>
      <point x="792" y="1591"/>
      <point x="792" y="1517" type="curve" smooth="yes"/>
      <point x="792" y="1422"/>
      <point x="705" y="1363"/>
    </contour>
    <contour>
      <point x="111" y="1363" type="curve" smooth="yes"/>
      <point x="28" y="1363"/>
      <point x="-43" y="1409"/>
      <point x="-43" y="1493" type="curve" smooth="yes"/>
      <point x="-43" y="1583"/>
      <point x="47" y="1648"/>
      <point x="137" y="1648" type="curve" smooth="yes"/>
      <point x="248" y="1648"/>
      <point x="296" y="1590"/>
      <point x="296" y="1516" type="curve" smooth="yes"/>
      <point x="296" y="1422"/>
      <point x="206" y="1363"/>
    </contour>
    <contour>
      <point x="93" y="0" type="line"/>
      <point x="93" y="114" type="line"/>
      <point x="243" y="140" type="line"/>
      <point x="243" y="846" type="line"/>
      <point x="111" y="959" type="line"/>
      <point x="111" y="1039" type="line"/>
      <point x="456" y="1149" type="line"/>
      <point x="523" y="1126" type="line"/>
      <point x="523" y="138" type="line"/>
      <point x="673" y="114" type="line"/>
      <point x="673" y="0" type="line"/>
    </contour>
  </outline>
</glyph>
<glyph name="ocircumflex" format="1">
  <advance width="1290"/>
  <unicode hex="00F4"/>
  <outline>
    <contour>
      <point x="376" y="1335" type="line"/>
      <point x="270" y="1397" type="line"/>
      <point x="542" y="1775" type="line"/>
      <point x="767" y="1775" type="line"/>
      <point x="1037" y="1398" type="line"/>
      <point x="918" y="1336" type="line"/>
      <point x="654" y="1568" type="line"/>
    </contour>
    <contour>
      <point x="86" y="570" type="curve" smooth="yes"/>
      <point x="91" y="958"/>
      <point x="364" y="1148"/>
      <point x="663" y="1152" type="curve" smooth="yes"/>
      <point x="1012" y="1156"/>
      <point x="1206" y="934"/>
      <point x="1205" y="583" type="curve" smooth="yes"/>
      <point x="1203" y="191"/>
      <point x="940" y="-23"/>
      <point x="636" y="-24" type="curve" smooth="yes"/>
      <point x="236" y="-25"/>
      <point x="82" y="251"/>
    </contour>
    <contour>
      <point x="646" y="107" type="curve" smooth="yes"/>
      <point x="850" y="105"/>
      <point x="903" y="317"/>
      <point x="903" y="570" type="curve" smooth="yes"/>
      <point x="903" y="794"/>
      <point x="846" y="1022"/>
      <point x="653" y="1024" type="curve" smooth="yes"/>
      <point x="449" y="1026"/>
      <point x="388" y="825"/>
      <point x="388" y="590" type="curve" smooth="yes"/>
      <point x="388" y="381"/>
      <point x="453" y="109"/>
    </contour>
  </outline>
</glyph>
<glyph name="otilde" format="1">
  <advance width="1290"/>
  <unicode hex="00F5"/>
  <outline>
    <contour>
      <point x="309" y="1390" type="curve"/>
      <point x="238" y="1477" type="line"/>
      <point x="284" y="1584"/>
      <point x="435" y="1671"/>
      <point x="532" y="1671" type="curve" smooth="yes"/>
      <point x="672" y="1671"/>
      <point x="721" y="1555"/>
      <point x="811" y="1555" type="curve" smooth="yes"/>
      <point x="885" y="1555"/>
      <point x="942" y="1599"/>
      <point x="985" y="1637" type="curve"/>
      <point x="1058" y="1550" type="line"/>
      <point x="1011" y="1443"/>
      <point x="866" y="1354"/>
      <point x="768" y="1354" type="curve" smooth="yes"/>
      <point x="629" y="1354"/>
      <point x="576" y="1472"/>
      <point x="485" y="1472" type="curve" smooth="yes"/>
      <point x="418" y="1472"/>
      <point x="354" y="1427"/>
    </contour>
    <contour>
      <point x="86" y="570" type="curve" smooth="yes"/>
      <point x="91" y="958"/>
      <point x="364" y="1148"/>
      <point x="663" y="1152" type="curve" smooth="yes"/>
      <point x="1012" y="1156"/>
      <point x="1206" y="934"/>
      <point x="1205" y="583" type="curve" smooth="yes"/>
      <point x="1203" y="191"/>
      <point x="940" y="-23"/>
      <point x="636" y="-24" type="curve" smooth="yes"/>
      <point x="236" y="-25"/>
      <point x="82" y="251"/>
    </contour>
    <contour>
      <point x="646" y="107" type="curve" smooth="yes"/>
      <point x="850" y="105"/>
      <point x="903" y="317"/>
      <point x="903" y="570" type="curve" smooth="yes"/>
      <point x="903" y="794"/>
      <point x="846" y="1022"/>
      <point x="653" y="1024" type="curve" smooth="yes"/>
      <point x="449" y="1026"/>
      <point x="388" y="825"/>
      <point x="388" y="590" type="curve" smooth="yes"/>
      <point x="388" y="381"/>
      <point x="453" y="109"/>
    </contour>
  </outline>
</glyph>
<glyph name="odieresis" format="1">
  <advance width="1290"/>
  <unicode hex="00F6"/>
  <outline>
    <contour>
      <point x="891" y="1363" type="curve" smooth="yes"/>
      <point x="810" y="1363"/>
      <point x="734" y="1410"/>
      <point x="734" y="1495" type="curve" smooth="yes"/>
      <point x="734" y="1583"/>
      <point x="827" y="1648"/>
      <point x="915" y="1648" type="curve" smooth="yes"/>
      <point x="1027" y="1648"/>
      <point x="1071" y="1591"/>
      <point x="1071" y="1517" type="curve" smooth="yes"/>
      <point x="1071" y="1422"/>
      <point x="984" y="1363"/>
    </contour>
    <contour>
      <point x="390" y="1363" type="curve" smooth="yes"/>
      <point x="307" y="1363"/>
      <point x="236" y="1409"/>
      <point x="236" y="1493" type="curve" smooth="yes"/>
      <point x="236" y="1583"/>
      <point x="326" y="1648"/>
      <point x="415" y="1648" type="curve" smooth="yes"/>
      <point x="527" y="1648"/>
      <point x="575" y="1590"/>
      <point x="575" y="1516" type="curve" smooth="yes"/>
      <point x="575" y="1422"/>
      <point x="484" y="1363"/>
    </contour>
    <contour>
      <point x="86" y="570" type="curve" smooth="yes"/>
      <point x="91" y="958"/>
      <point x="364" y="1148"/>
      <point x="663" y="1152" type="curve" smooth="yes"/>
      <point x="1012" y="1156"/>
      <point x="1206" y="934"/>
      <point x="1205" y="583" type="curve" smooth="yes"/>
      <point x="1203" y="191"/>
      <point x="940" y="-23"/>
      <point x="636" y="-24" type="curve" smooth="yes"/>
      <point x="236" y="-25"/>
      <point x="82" y="251"/>
    </contour>
    <contour>
      <point x="646" y="107" type="curve" smooth="yes"/>
      <point x="850" y="105"/>
      <point x="903" y="317"/>
      <point x="903" y="570" type="curve" smooth="yes"/>
      <point x="903" y="794"/>
      <point x="846" y="1022"/>
      <point x="653" y="1024" type="curve" smooth="yes"/>
      <point x="449" y="1026"/>
      <point x="388" y="825"/>
      <point x="388" y="590" type="curve" smooth="yes"/>
      <point x="388" y="381"/>
      <point x="453" y="109"/>
    </contour>
  </outline>
</glyph>
<glyph name="divide" format="1">
  <advance width="1348"/>
  <unicode hex="00F7"/>
  <outline>
    <contour>
      <point x="677" y="1105" type="curve" smooth="yes"/>
      <point x="592" y="1105"/>
      <point x="511" y="1163"/>
      <point x="511" y="1263" type="curve" smooth="yes"/>
      <point x="511" y="1372"/>
      <point x="615" y="1452"/>
      <point x="707" y="1452" type="curve" smooth="yes"/>
      <point x="825" y="1452"/>
      <point x="876" y="1382"/>
      <point x="876" y="1292" type="curve" smooth="yes"/>
      <point x="876" y="1176"/>
      <point x="777" y="1105"/>
    </contour>
    <contour>
      <point x="181" y="724" type="line"/>
      <point x="181" y="922" type="line"/>
      <point x="1168" y="922" type="line"/>
      <point x="1168" y="724" type="line"/>
    </contour>
    <contour>
      <point x="510" y="350" type="curve" smooth="yes"/>
      <point x="510" y="459"/>
      <point x="614" y="539"/>
      <point x="707" y="539" type="curve" smooth="yes"/>
      <point x="825" y="539"/>
      <point x="876" y="468"/>
      <point x="876" y="378" type="curve" smooth="yes"/>
      <point x="876" y="263"/>
      <point x="776" y="191"/>
      <point x="677" y="191" type="curve" smooth="yes"/>
      <point x="591" y="191"/>
      <point x="510" y="249"/>
    </contour>
  </outline>
</glyph>
<glyph name="yacute" format="1">
  <advance width="1197"/>
  <unicode hex="00FD"/>
  <outline>
    <contour>
      <point x="576" y="1338" type="curve"/>
      <point x="503" y="1412" type="line"/>
      <point x="809" y="1820" type="line"/>
      <point x="1016" y="1645" type="line"/>
      <point x="927" y="1506"/>
      <point x="720" y="1390"/>
    </contour>
    <contour>
      <point x="148" y="-295" type="line"/>
      <point x="177" y="-302"/>
      <point x="219" y="-310"/>
      <point x="267" y="-309" type="curve" smooth="yes"/>
      <point x="344" y="-308"/>
      <point x="474" y="-270"/>
      <point x="544" y="0" type="curve"/>
      <point x="495" y="0" type="line"/>
      <point x="98" y="949" type="line"/>
      <point x="4" y="972" type="line"/>
      <point x="4" y="1119" type="line"/>
      <point x="536" y="1119" type="line"/>
      <point x="536" y="972" type="line"/>
      <point x="409" y="947" type="line"/>
      <point x="622" y="355" type="line"/>
      <point x="659" y="203" type="line"/>
      <point x="702" y="355" type="line"/>
      <point x="882" y="951" type="line"/>
      <point x="737" y="972" type="line"/>
      <point x="737" y="1119" type="line"/>
      <point x="1212" y="1119" type="line"/>
      <point x="1212" y="972" type="line"/>
      <point x="1107" y="953" type="line"/>
      <point x="822" y="189"/>
      <point x="759" y="31"/>
      <point x="728" y="-48" type="curve"/>
      <point x="617" y="-341"/>
      <point x="509" y="-509"/>
      <point x="311" y="-526" type="curve" smooth="yes"/>
      <point x="283" y="-529"/>
      <point x="252" y="-530"/>
      <point x="221" y="-529" type="curve"/>
      <point x="192" y="-527"/>
      <point x="159" y="-523"/>
      <point x="147" y="-515" type="curve"/>
    </contour>
  </outline>
</glyph>
<glyph name="Aogonek" format="1">
  <advance width="1554"/>
  <unicode hex="0104"/>
  <outline>
    <contour>
      <point x="4" y="0" type="line"/>
      <point x="4" y="116" type="line"/>
      <point x="141" y="152" type="line"/>
      <point x="646" y="1553" type="line"/>
      <point x="908" y="1553" type="line"/>
      <point x="1395" y="152" type="line"/>
      <point x="1550" y="115" type="line"/>
      <point x="1550" y="0" type="line"/>
      <point x="1334" y="0" type="line"/>
      <point x="1197" y="-49"/>
      <point x="1061" y="-163"/>
      <point x="1051" y="-232" type="curve"/>
      <point x="1033" y="-324"/>
      <point x="1081" y="-339"/>
      <point x="1142" y="-342" type="curve" smooth="yes"/>
      <point x="1223" y="-346"/>
      <point x="1316" y="-302"/>
      <point x="1371" y="-280" type="curve"/>
      <point x="1400" y="-394" type="line"/>
      <point x="1303" y="-465"/>
      <point x="1174" y="-524"/>
      <point x="993" y="-519" type="curve"/>
      <point x="842" y="-516"/>
      <point x="789" y="-426"/>
      <point x="787" y="-345" type="curve" smooth="yes"/>
      <point x="784" y="-238"/>
      <point x="927" y="-77"/>
      <point x="1125" y="0" type="curve"/>
      <point x="934" y="0" type="line"/>
      <point x="934" y="115" type="line"/>
      <point x="1081" y="154" type="line"/>
      <point x="1012" y="379" type="line"/>
      <point x="442" y="379" type="line"/>
      <point x="371" y="156" type="line"/>
      <point x="528" y="116" type="line"/>
      <point x="528" y="0" type="line"/>
    </contour>
    <contour>
      <point x="492" y="535" type="line"/>
      <point x="963" y="535" type="line"/>
      <point x="817" y="1006" type="line"/>
      <point x="734" y="1292" type="line"/>
    </contour>
  </outline>
</glyph>
<glyph name="eogonek" format="1">
  <advance width="1198"/>
  <unicode hex="0119"/>
  <outline>
    <contour>
      <point x="85" y="542" type="curve" smooth="yes"/>
      <point x="85" y="884"/>
      <point x="313" y="1148"/>
      <point x="672" y="1151" type="curve" smooth="yes"/>
      <point x="958" y="1154"/>
      <point x="1096" y="987"/>
      <point x="1106" y="734" type="curve" smooth="yes"/>
      <point x="1109" y="651"/>
      <point x="1100" y="589"/>
      <point x="1093" y="537" type="curve"/>
      <point x="376" y="537" type="line"/>
      <point x="376" y="533"/>
      <point x="377" y="530"/>
      <point x="377" y="527" type="curve" smooth="yes"/>
      <point x="392" y="253"/>
      <point x="539" y="147"/>
      <point x="724" y="147" type="curve" smooth="yes"/>
      <point x="824" y="147"/>
      <point x="948" y="169"/>
      <point x="1033" y="211" type="curve"/>
      <point x="1079" y="103" type="line"/>
      <point x="1078" y="102"/>
      <point x="1077" y="102"/>
      <point x="1077" y="101" type="curve" smooth="yes"/>
      <point x="1079" y="102" type="line"/>
      <point x="894" y="-32"/>
      <point x="817" y="-146"/>
      <point x="817" y="-230" type="curve" smooth="yes"/>
      <point x="817" y="-351"/>
      <point x="988" y="-363"/>
      <point x="1105" y="-327" type="curve"/>
      <point x="1105" y="-443" type="line"/>
      <point x="972" y="-539"/>
      <point x="593" y="-561"/>
      <point x="593" y="-324" type="curve" smooth="yes"/>
      <point x="593" y="-200"/>
      <point x="679" y="-89"/>
      <point x="803" y="-10" type="curve"/>
      <point x="744" y="-21"/>
      <point x="683" y="-27"/>
      <point x="624" y="-26" type="curve" smooth="yes"/>
      <point x="279" y="-22"/>
      <point x="85" y="191"/>
    </contour>
    <contour>
      <point x="379" y="679" type="curve"/>
      <point x="822" y="679" type="line"/>
      <point x="831" y="793"/>
      <point x="835" y="936"/>
      <point x="745" y="996" type="curve" smooth="yes"/>
      <point x="717" y="1015"/>
      <point x="680" y="1026"/>
      <point x="632" y="1026" type="curve" smooth="yes"/>
      <point x="474" y="1026"/>
      <point x="396" y="872"/>
    </contour>
  </outline>
</glyph>
<glyph name="ij" format="1">
  <advance width="1389"/>
  <unicode hex="0133"/>
  <outline>
    <contour>
      <point x="1042" y="1359" type="curve" smooth="yes"/>
      <point x="954" y="1359"/>
      <point x="871" y="1419"/>
      <point x="871" y="1519" type="curve" smooth="yes"/>
      <point x="871" y="1627"/>
      <point x="977" y="1709"/>
      <point x="1074" y="1709" type="curve" smooth="yes"/>
      <point x="1193" y="1709"/>
      <point x="1246" y="1636"/>
      <point x="1246" y="1548" type="curve" smooth="yes"/>
      <point x="1246" y="1433"/>
      <point x="1145" y="1359"/>
    </contour>
    <contour>
      <point x="348" y="1347" type="curve" smooth="yes"/>
      <point x="260" y="1347"/>
      <point x="176" y="1407"/>
      <point x="176" y="1506" type="curve" smooth="yes"/>
      <point x="176" y="1615"/>
      <point x="283" y="1697"/>
      <point x="380" y="1697" type="curve" smooth="yes"/>
      <point x="499" y="1697"/>
      <point x="551" y="1624"/>
      <point x="551" y="1536" type="curve" smooth="yes"/>
      <point x="551" y="1421"/>
      <point x="450" y="1347"/>
    </contour>
    <contour>
      <point x="693" y="-337" type="line"/>
      <point x="716" y="-344"/>
      <point x="785" y="-348"/>
      <point x="809" y="-348" type="curve" smooth="yes"/>
      <point x="923" y="-348"/>
      <point x="948" y="-248"/>
      <point x="948" y="-4" type="curve" smooth="yes"/>
      <point x="948" y="846" type="line"/>
      <point x="825" y="962" type="line"/>
      <point x="825" y="1037" type="line"/>
      <point x="1164" y="1146" type="line"/>
      <point x="1230" y="1122" type="line"/>
      <point x="1230" y="-34" type="line" smooth="yes"/>
      <point x="1230" y="-346"/>
      <point x="1087" y="-530"/>
      <point x="858" y="-530" type="curve" smooth="yes"/>
      <point x="793" y="-530"/>
      <point x="704" y="-512"/>
      <point x="693" y="-503" type="curve"/>
    </contour>
    <contour>
      <point x="93" y="0" type="line"/>
      <point x="93" y="114" type="line"/>
      <point x="243" y="140" type="line"/>
      <point x="243" y="846" type="line"/>
      <point x="111" y="959" type="line"/>
      <point x="111" y="1039" type="line"/>
      <point x="456" y="1146" type="line"/>
      <point x="523" y="1123" type="line"/>
      <point x="523" y="138" type="line"/>
      <point x="675" y="114" type="line"/>
      <point x="675" y="0" type="line"/>
    </contour>
  </outline>
</glyph>
<glyph name="Kcommaaccent" format="1">
  <advance width="1482"/>
  <unicode hex="0136"/>
  <outline>
    <contour>
      <point x="72" y="0" type="line"/>
      <point x="72" y="116" type="line"/>
      <point x="252" y="153" type="line"/>
      <point x="252" y="1396" type="line"/>
      <point x="72" y="1418" type="line"/>
      <point x="72" y="1553" type="line"/>
      <point x="709" y="1553" type="line"/>
      <point x="709" y="1418" type="line"/>
      <point x="537" y="1395" type="line"/>
      <point x="537" y="776" type="line"/>
      <point x="1045" y="1397" type="line"/>
      <point x="887" y="1418" type="line"/>
      <point x="887" y="1463"/>
      <point x="886" y="1508"/>
      <point x="885" y="1553" type="curve"/>
      <point x="1452" y="1553" type="line"/>
      <point x="1452" y="1418" type="line"/>
      <point x="1276" y="1395" type="line"/>
      <point x="827" y="891" type="line"/>
      <point x="989" y="736"/>
      <point x="1264" y="189"/>
      <point x="1358" y="153" type="curve"/>
      <point x="1501" y="116" type="line"/>
      <point x="1501" y="0" type="line"/>
      <point x="1127" y="0" type="line" smooth="yes"/>
      <point x="1029" y="0"/>
      <point x="826" y="587"/>
      <point x="674" y="719" type="curve"/>
      <point x="537" y="565" type="line"/>
      <point x="537" y="153" type="line"/>
      <point x="731" y="116" type="line"/>
      <point x="731" y="0" type="line"/>
    </contour>
    <contour>
      <point x="643" y="-178" type="line"/>
      <point x="771" y="-40" type="line"/>
      <point x="910" y="-56"/>
      <point x="1009" y="-168"/>
      <point x="1009" y="-310" type="curve" smooth="yes"/>
      <point x="1009" y="-486"/>
      <point x="841" y="-616"/>
      <point x="757" y="-640" type="curve"/>
      <point x="660" y="-589" type="line"/>
      <point x="660" y="-566" type="line"/>
      <point x="711" y="-532"/>
      <point x="758" y="-464"/>
      <point x="758" y="-380" type="curve" smooth="yes"/>
      <point x="758" y="-307"/>
      <point x="697" y="-245"/>
      <point x="643" y="-245" type="curve"/>
    </contour>
  </outline>
</glyph>
<glyph name="kcommaaccent" format="1">
  <advance width="1322"/>
  <unicode hex="0137"/>
  <outline>
    <contour>
      <point x="87" y="0" type="line"/>
      <point x="87" y="114" type="line"/>
      <point x="234" y="141" type="line"/>
      <point x="234" y="1399" type="line"/>
      <point x="65" y="1455" type="line"/>
      <point x="65" y="1573" type="line"/>
      <point x="466" y="1628" type="line"/>
      <point x="518" y="1603" type="line"/>
      <point x="518" y="708" type="line"/>
      <point x="509" y="562" type="line"/>
      <point x="885" y="957" type="line"/>
      <point x="716" y="976" type="line"/>
      <point x="716" y="1123" type="line"/>
      <point x="1283" y="1123" type="line"/>
      <point x="1283" y="976" type="line"/>
      <point x="1102" y="958" type="line"/>
      <point x="818" y="679" type="line"/>
      <point x="1194" y="136" type="line"/>
      <point x="1312" y="115" type="line"/>
      <point x="1312" y="0" type="line"/>
      <point x="767" y="0" type="line"/>
      <point x="767" y="115" type="line"/>
      <point x="871" y="141" type="line"/>
      <point x="637" y="520" type="line"/>
      <point x="508" y="382" type="line"/>
      <point x="517" y="253" type="line"/>
      <point x="517" y="138" type="line"/>
      <point x="646" y="114" type="line"/>
      <point x="646" y="0" type="line"/>
    </contour>
    <contour>
      <point x="528" y="-178" type="line"/>
      <point x="656" y="-40" type="line"/>
      <point x="795" y="-56"/>
      <point x="894" y="-168"/>
      <point x="894" y="-310" type="curve" smooth="yes"/>
      <point x="894" y="-486"/>
      <point x="726" y="-616"/>
      <point x="641" y="-640" type="curve"/>
      <point x="544" y="-589" type="line"/>
      <point x="544" y="-566" type="line"/>
      <point x="595" y="-532"/>
      <point x="643" y="-464"/>
      <point x="643" y="-380" type="curve" smooth="yes"/>
      <point x="643" y="-307"/>
      <point x="582" y="-245"/>
      <point x="528" y="-245" type="curve"/>
    </contour>
  </outline>
</glyph>
<glyph name="kgreenlandic" format="1">
  <advance width="1322"/>
  <unicode hex="0138"/>
  <outline>
    <contour>
      <point x="87" y="0" type="line"/>
      <point x="87" y="114" type="line"/>
      <point x="234" y="141" type="line"/>
      <point x="234" y="890" type="line"/>
      <point x="79" y="959" type="line"/>
      <point x="79" y="1069" type="line"/>
      <point x="433" y="1149" type="line"/>
      <point x="518" y="1121" type="line"/>
      <point x="518" y="706" type="line"/>
      <point x="509" y="562" type="line"/>
      <point x="885" y="957" type="line"/>
      <point x="716" y="976" type="line"/>
      <point x="716" y="1123" type="line"/>
      <point x="1283" y="1123" type="line"/>
      <point x="1283" y="976" type="line"/>
      <point x="1102" y="958" type="line"/>
      <point x="818" y="679" type="line"/>
      <point x="1194" y="136" type="line"/>
      <point x="1312" y="115" type="line"/>
      <point x="1312" y="0" type="line"/>
      <point x="767" y="0" type="line"/>
      <point x="767" y="115" type="line"/>
      <point x="871" y="141" type="line"/>
      <point x="637" y="520" type="line"/>
      <point x="508" y="382" type="line"/>
      <point x="517" y="253" type="line"/>
      <point x="517" y="138" type="line"/>
      <point x="646" y="114" type="line"/>
      <point x="646" y="0" type="line"/>
    </contour>
  </outline>
</glyph>
<glyph name="Ldotaccent" format="1">
  <advance width="1412"/>
  <unicode hex="013F"/>
  <outline>
    <contour>
      <point x="99" y="0" type="line"/>
      <point x="99" y="116" type="line"/>
      <point x="252" y="151" type="line"/>
      <point x="252" y="1382" type="line"/>
      <point x="103" y="1401" type="line"/>
      <point x="103" y="1553" type="line"/>
      <point x="721" y="1553" type="line"/>
      <point x="721" y="1401" type="line"/>
      <point x="541" y="1381" type="line"/>
      <point x="540" y="139" type="line"/>
      <point x="976" y="173" type="line"/>
      <point x="1124" y="411" type="line"/>
      <point x="1247" y="360" type="line"/>
      <point x="1180" y="0" type="line"/>
    </contour>
    <contour>
      <point x="1027" y="830" type="curve" smooth="yes"/>
      <point x="1027" y="940"/>
      <point x="1134" y="1022"/>
      <point x="1227" y="1022" type="curve" smooth="yes"/>
      <point x="1345" y="1022"/>
      <point x="1399" y="949"/>
      <point x="1399" y="859" type="curve" smooth="yes"/>
      <point x="1399" y="744"/>
      <point x="1296" y="672"/>
      <point x="1197" y="672" type="curve" smooth="yes"/>
      <point x="1111" y="672"/>
      <point x="1027" y="730"/>
    </contour>
  </outline>
</glyph>
<glyph name="ldot" format="1">
  <advance width="1113"/>
  <unicode hex="0140"/>
  <outline>
    <contour>
      <point x="85" y="0" type="line"/>
      <point x="85" y="114" type="line"/>
      <point x="225" y="139" type="line"/>
      <point x="225" y="1417" type="line"/>
      <point x="79" y="1465" type="line"/>
      <point x="79" y="1582" type="line"/>
      <point x="459" y="1628" type="line"/>
      <point x="510" y="1608" type="line"/>
      <point x="510" y="140" type="line"/>
      <point x="686" y="114" type="line"/>
      <point x="686" y="0" type="line"/>
    </contour>
    <contour>
      <point x="720" y="792" type="curve" smooth="yes"/>
      <point x="720" y="902"/>
      <point x="827" y="984"/>
      <point x="919" y="984" type="curve" smooth="yes"/>
      <point x="1037" y="984"/>
      <point x="1092" y="911"/>
      <point x="1092" y="821" type="curve" smooth="yes"/>
      <point x="1092" y="706"/>
      <point x="989" y="634"/>
      <point x="889" y="634" type="curve" smooth="yes"/>
      <point x="804" y="634"/>
      <point x="720" y="692"/>
    </contour>
  </outline>
</glyph>
<glyph name="Lslash" format="1">
  <advance width="1269"/>
  <unicode hex="0141"/>
  <outline>
    <contour>
      <point x="99" y="0" type="line"/>
      <point x="99" y="116" type="line"/>
      <point x="252" y="151" type="line"/>
      <point x="252" y="550" type="line"/>
      <point x="80" y="483" type="line"/>
      <point x="80" y="483"/>
      <point x="82" y="681"/>
      <point x="81" y="683" type="curve" smooth="yes"/>
      <point x="80" y="683"/>
      <point x="150" y="713"/>
      <point x="252" y="756" type="curve"/>
      <point x="252" y="1382" type="line"/>
      <point x="103" y="1401" type="line"/>
      <point x="103" y="1553" type="line"/>
      <point x="721" y="1553" type="line"/>
      <point x="721" y="1401" type="line"/>
      <point x="541" y="1381" type="line"/>
      <point x="540" y="876" type="line"/>
      <point x="774" y="973"/>
      <point x="1010" y="1071"/>
      <point x="1010" y="1071" type="curve"/>
      <point x="1010" y="848" type="line"/>
      <point x="540" y="663" type="line"/>
      <point x="540" y="139" type="line"/>
      <point x="976" y="173" type="line"/>
      <point x="1124" y="411" type="line"/>
      <point x="1247" y="360" type="line"/>
      <point x="1180" y="0" type="line"/>
    </contour>
  </outline>
</glyph>
<glyph name="oe" format="1">
  <advance width="2107"/>
  <unicode hex="0153"/>
  <outline>
    <contour>
      <point x="86" y="570" type="curve" smooth="yes"/>
      <point x="91" y="958"/>
      <point x="364" y="1148"/>
      <point x="663" y="1152" type="curve" smooth="yes"/>
      <point x="877" y="1154"/>
      <point x="1033" y="1072"/>
      <point x="1121" y="926" type="curve"/>
      <point x="1222" y="1063"/>
      <point x="1383" y="1149"/>
      <point x="1588" y="1151" type="curve" smooth="yes"/>
      <point x="1874" y="1154"/>
      <point x="2012" y="987"/>
      <point x="2022" y="734" type="curve" smooth="yes"/>
      <point x="2025" y="651"/>
      <point x="2016" y="589"/>
      <point x="2008" y="537" type="curve"/>
      <point x="1292" y="537" type="line"/>
      <point x="1292" y="533"/>
      <point x="1293" y="530"/>
      <point x="1293" y="527" type="curve" smooth="yes"/>
      <point x="1308" y="253"/>
      <point x="1455" y="147"/>
      <point x="1640" y="147" type="curve" smooth="yes"/>
      <point x="1740" y="147"/>
      <point x="1864" y="169"/>
      <point x="1949" y="211" type="curve"/>
      <point x="1995" y="103" type="line"/>
      <point x="1904" y="25"/>
      <point x="1715" y="-29"/>
      <point x="1540" y="-26" type="curve" smooth="yes"/>
      <point x="1330" y="-23"/>
      <point x="1177" y="56"/>
      <point x="1088" y="196" type="curve"/>
      <point x="983" y="52"/>
      <point x="816" y="-23"/>
      <point x="636" y="-24" type="curve" smooth="yes"/>
      <point x="236" y="-25"/>
      <point x="82" y="251"/>
    </contour>
    <contour>
      <point x="1295" y="679" type="curve"/>
      <point x="1738" y="679" type="line"/>
      <point x="1747" y="793"/>
      <point x="1751" y="936"/>
      <point x="1661" y="996" type="curve" smooth="yes"/>
      <point x="1633" y="1015"/>
      <point x="1596" y="1026"/>
      <point x="1547" y="1026" type="curve" smooth="yes"/>
      <point x="1390" y="1026"/>
      <point x="1312" y="872"/>
    </contour>
    <contour>
      <point x="646" y="107" type="curve" smooth="yes"/>
      <point x="850" y="105"/>
      <point x="903" y="317"/>
      <point x="903" y="570" type="curve" smooth="yes"/>
      <point x="903" y="794"/>
      <point x="846" y="1022"/>
      <point x="653" y="1024" type="curve" smooth="yes"/>
      <point x="449" y="1026"/>
      <point x="388" y="825"/>
      <point x="388" y="590" type="curve" smooth="yes"/>
      <point x="388" y="381"/>
      <point x="453" y="109"/>
    </contour>
  </outline>
</glyph>
<glyph name="Rcommaaccent" format="1">
  <advance width="1479"/>
  <unicode hex="0156"/>
  <outline>
    <contour>
      <point x="72" y="0" type="line"/>
      <point x="72" y="116" type="line"/>
      <point x="252" y="154" type="line"/>
      <point x="252" y="1387" type="line"/>
      <point x="93" y="1408" type="line"/>
      <point x="93" y="1553" type="line"/>
      <point x="334" y="1553" type="line" smooth="yes"/>
      <point x="469" y="1553"/>
      <point x="607" y="1567"/>
      <point x="722" y="1567" type="curve" smooth="yes"/>
      <point x="1049" y="1567"/>
      <point x="1292" y="1464"/>
      <point x="1292" y="1158" type="curve" smooth="yes"/>
      <point x="1292" y="933"/>
      <point x="1174" y="776"/>
      <point x="955" y="701" type="curve"/>
      <point x="1137" y="618"/>
      <point x="1259" y="202"/>
      <point x="1376" y="150" type="curve"/>
      <point x="1496" y="116" type="line"/>
      <point x="1496" y="0" type="line"/>
      <point x="1132" y="0" type="line" smooth="yes"/>
      <point x="1013" y="0"/>
      <point x="874" y="667"/>
      <point x="675" y="658" type="curve"/>
      <point x="537" y="656" type="line"/>
      <point x="537" y="151" type="line"/>
      <point x="735" y="116" type="line"/>
      <point x="735" y="0" type="line"/>
    </contour>
    <contour>
      <point x="537" y="799" type="line"/>
      <point x="586" y="791"/>
      <point x="678" y="789"/>
      <point x="733" y="794" type="curve"/>
      <point x="877" y="802"/>
      <point x="1010" y="878"/>
      <point x="1010" y="1127" type="curve" smooth="yes"/>
      <point x="1010" y="1290"/>
      <point x="932" y="1432"/>
      <point x="683" y="1428" type="curve" smooth="yes"/>
      <point x="633" y="1427"/>
      <point x="573" y="1427"/>
      <point x="537" y="1414" type="curve"/>
    </contour>
    <contour>
      <point x="674" y="-178" type="line"/>
      <point x="802" y="-40" type="line"/>
      <point x="941" y="-56"/>
      <point x="1040" y="-168"/>
      <point x="1040" y="-310" type="curve" smooth="yes"/>
      <point x="1040" y="-486"/>
      <point x="872" y="-616"/>
      <point x="788" y="-640" type="curve"/>
      <point x="691" y="-589" type="line"/>
      <point x="691" y="-566" type="line"/>
      <point x="741" y="-532"/>
      <point x="789" y="-464"/>
      <point x="789" y="-380" type="curve" smooth="yes"/>
      <point x="789" y="-307"/>
      <point x="728" y="-245"/>
      <point x="674" y="-245" type="curve"/>
    </contour>
  </outline>
</glyph>
<glyph name="Scaron" format="1">
  <advance width="1273"/>
  <unicode hex="0160"/>
  <outline>
    <contour>
      <point x="538" y="1605" type="line"/>
      <point x="277" y="1857" type="line"/>
      <point x="378" y="1920" type="line"/>
      <point x="644" y="1775" type="line"/>
      <point x="917" y="1920" type="line"/>
      <point x="1014" y="1859" type="line"/>
      <point x="752" y="1605" type="line"/>
    </contour>
    <contour>
      <point x="139" y="63" type="curve"/>
      <point x="139" y="432" type="line"/>
      <point x="262" y="432" type="line"/>
      <point x="342" y="209" type="line"/>
      <point x="417" y="120"/>
      <point x="536" y="105"/>
      <point x="646" y="105" type="curve" smooth="yes"/>
      <point x="768" y="105"/>
      <point x="912" y="167"/>
      <point x="912" y="346" type="curve" smooth="yes"/>
      <point x="912" y="497"/>
      <point x="733" y="588"/>
      <point x="547" y="690" type="curve" smooth="yes"/>
      <point x="347" y="800"/>
      <point x="139" y="926"/>
      <point x="140" y="1158" type="curve"/>
      <point x="140" y="1436"/>
      <point x="412" y="1567"/>
      <point x="653" y="1567" type="curve" smooth="yes"/>
      <point x="862" y="1567"/>
      <point x="1045" y="1523"/>
      <point x="1095" y="1493" type="curve"/>
      <point x="1095" y="1185" type="line"/>
      <point x="965" y="1185" type="line"/>
      <point x="878" y="1387" type="line"/>
      <point x="851" y="1415"/>
      <point x="755" y="1442"/>
      <point x="666" y="1441" type="curve"/>
      <point x="558" y="1441"/>
      <point x="411" y="1395"/>
      <point x="410" y="1238" type="curve" smooth="yes"/>
      <point x="410" y="1088"/>
      <point x="555" y="994"/>
      <point x="720" y="904" type="curve" smooth="yes"/>
      <point x="939" y="784"/>
      <point x="1194" y="664"/>
      <point x="1194" y="411" type="curve" smooth="yes"/>
      <point x="1193" y="137"/>
      <point x="963" y="-26"/>
      <point x="633" y="-26" type="curve" smooth="yes"/>
      <point x="441" y="-26"/>
      <point x="221" y="17"/>
    </contour>
  </outline>
</glyph>
<glyph name="scaron" format="1">
  <advance width="1062"/>
  <unicode hex="0161"/>
  <outline>
    <contour>
      <point x="434" y="1335" type="line"/>
      <point x="163" y="1713" type="line"/>
      <point x="274" y="1775" type="line"/>
      <point x="547" y="1542" type="line"/>
      <point x="816" y="1774" type="line"/>
      <point x="930" y="1713" type="line"/>
      <point x="659" y="1335" type="line"/>
    </contour>
    <contour>
      <point x="127" y="64" type="curve"/>
      <point x="127" y="312" type="line"/>
      <point x="259" y="312" type="line"/>
      <point x="311" y="197" type="line"/>
      <point x="360" y="153"/>
      <point x="416" y="104"/>
      <point x="512" y="99" type="curve" smooth="yes"/>
      <point x="645" y="93"/>
      <point x="727" y="149"/>
      <point x="726" y="252" type="curve" smooth="yes"/>
      <point x="725" y="345"/>
      <point x="595" y="394"/>
      <point x="456" y="459" type="curve" smooth="yes"/>
      <point x="281" y="541"/>
      <point x="117" y="643"/>
      <point x="120" y="839" type="curve" smooth="yes"/>
      <point x="123" y="1063"/>
      <point x="380" y="1146"/>
      <point x="564" y="1151" type="curve" smooth="yes"/>
      <point x="708" y="1155"/>
      <point x="853" y="1121"/>
      <point x="925" y="1089" type="curve"/>
      <point x="925" y="841" type="line"/>
      <point x="789" y="841" type="line"/>
      <point x="738" y="960" type="line"/>
      <point x="702" y="1000"/>
      <point x="651" y="1035"/>
      <point x="579" y="1036" type="curve"/>
      <point x="482" y="1036"/>
      <point x="400" y="999"/>
      <point x="398" y="911" type="curve"/>
      <point x="397" y="809"/>
      <point x="501" y="753"/>
      <point x="622" y="695" type="curve"/>
      <point x="794" y="616"/>
      <point x="998" y="540"/>
      <point x="998" y="328" type="curve" smooth="yes"/>
      <point x="998" y="81"/>
      <point x="775" y="-24"/>
      <point x="506" y="-24" type="curve" smooth="yes"/>
      <point x="381" y="-24"/>
      <point x="232" y="4"/>
    </contour>
  </outline>
</glyph>
<glyph name="Zdotaccent" format="1">
  <advance width="1367"/>
  <unicode hex="017B"/>
  <outline>
    <contour>
      <point x="699" y="1633" type="curve" smooth="yes"/>
      <point x="618" y="1633"/>
      <point x="542" y="1681"/>
      <point x="542" y="1766" type="curve" smooth="yes"/>
      <point x="542" y="1854"/>
      <point x="636" y="1920"/>
      <point x="724" y="1920" type="curve" smooth="yes"/>
      <point x="836" y="1920"/>
      <point x="880" y="1862"/>
      <point x="880" y="1788" type="curve" smooth="yes"/>
      <point x="880" y="1693"/>
      <point x="792" y="1633"/>
    </contour>
    <contour>
      <point x="101" y="0" type="line"/>
      <point x="67" y="117" type="line"/>
      <point x="861" y="1260" type="line"/>
      <point x="1000" y="1415" type="line"/>
      <point x="366" y="1379" type="line"/>
      <point x="253" y="1141" type="line"/>
      <point x="120" y="1166" type="line"/>
      <point x="158" y="1553" type="line"/>
      <point x="1274" y="1553" type="line"/>
      <point x="1313" y="1429" type="line"/>
      <point x="527" y="288" type="line"/>
      <point x="402" y="141" type="line"/>
      <point x="1043" y="184" type="line"/>
      <point x="1212" y="445" type="line"/>
      <point x="1339" y="412" type="line"/>
      <point x="1246" y="0" type="line"/>
    </contour>
  </outline>
</glyph>
<glyph name="zdotaccent" format="1">
  <advance width="1119"/>
  <unicode hex="017C"/>
  <outline>
    <contour>
      <point x="555" y="1342" type="curve" smooth="yes"/>
      <point x="473" y="1342"/>
      <point x="400" y="1390"/>
      <point x="400" y="1473" type="curve" smooth="yes"/>
      <point x="400" y="1564"/>
      <point x="492" y="1630"/>
      <point x="581" y="1630" type="curve" smooth="yes"/>
      <point x="693" y="1630"/>
      <point x="740" y="1571"/>
      <point x="740" y="1497" type="curve" smooth="yes"/>
      <point x="740" y="1402"/>
      <point x="650" y="1342"/>
    </contour>
    <contour>
      <point x="108" y="0" type="line"/>
      <point x="68" y="92" type="line"/>
      <point x="163" y="238" type="line"/>
      <point x="644" y="899" type="line"/>
      <point x="728" y="993" type="line"/>
      <point x="320" y="974" type="line"/>
      <point x="256" y="780" type="line"/>
      <point x="113" y="780" type="line"/>
      <point x="113" y="1119" type="line"/>
      <point x="1023" y="1119" type="line"/>
      <point x="1063" y="1013" type="line"/>
      <point x="539" y="270" type="line"/>
      <point x="426" y="128" type="line"/>
      <point x="861" y="157" type="line"/>
      <point x="923" y="328" type="line"/>
      <point x="1073" y="328" type="line"/>
      <point x="1056" y="0" type="line"/>
    </contour>
  </outline>
</glyph>
<glyph name="zcaron" format="1">
  <advance width="1119"/>
  <unicode hex="017E"/>
  <outline>
    <contour>
      <point x="466" y="1335" type="line"/>
      <point x="195" y="1713" type="line"/>
      <point x="306" y="1775" type="line"/>
      <point x="579" y="1542" type="line"/>
      <point x="848" y="1774" type="line"/>
      <point x="962" y="1713" type="line"/>
      <point x="691" y="1335" type="line"/>
    </contour>
    <contour>
      <point x="108" y="0" type="line"/>
      <point x="68" y="92" type="line"/>
      <point x="163" y="238" type="line"/>
      <point x="644" y="899" type="line"/>
      <point x="728" y="993" type="line"/>
      <point x="320" y="974" type="line"/>
      <point x="256" y="780" type="line"/>
      <point x="113" y="780" type="line"/>
      <point x="113" y="1119" type="line"/>
      <point x="1023" y="1119" type="line"/>
      <point x="1063" y="1013" type="line"/>
      <point x="539" y="270" type="line"/>
      <point x="426" y="128" type="line"/>
      <point x="861" y="157" type="line"/>
      <point x="923" y="328" type="line"/>
      <point x="1073" y="328" type="line"/>
      <point x="1056" y="0" type="line"/>
    </contour>
  </outline>
</glyph>
<glyph name="dotlessj" format="1">
  <advance width="669"/>
  <unicode hex="0237"/>
  <outline>
    <contour>
      <point x="228" y="-2" type="curve" smooth="yes"/>
      <point x="228" y="846" type="line"/>
      <point x="105" y="962" type="line"/>
      <point x="105" y="1037" type="line"/>
      <point x="444" y="1146" type="line"/>
      <point x="510" y="1122" type="line"/>
      <point x="510" y="-16" type="line" smooth="yes"/>
      <point x="510" y="-328"/>
      <point x="358" y="-515"/>
      <point x="129" y="-515" type="curve" smooth="yes"/>
      <point x="101" y="-515"/>
      <point x="-16" y="-509"/>
      <point x="-27" y="-500" type="curve"/>
      <point x="-27" y="-312" type="line"/>
      <point x="-4" y="-319"/>
      <point x="74" y="-323"/>
      <point x="98" y="-323" type="curve" smooth="yes"/>
      <point x="204" y="-323"/>
      <point x="228" y="-237"/>
    </contour>
  </outline>
</glyph>
<glyph name="Delta" format="1">
  <advance width="1873"/>
  <unicode hex="0394"/>
  <unicode hex="2206"/>
  <outline>
    <contour>
      <point x="183" y="22" type="line"/>
      <point x="905" y="1537" type="line"/>
      <point x="937" y="1537" type="line"/>
      <point x="1690" y="27" type="line"/>
      <point x="1674" y="1" type="line"/>
      <point x="197" y="1" type="line"/>
    </contour>
    <contour>
      <point x="430" y="151" type="line"/>
      <point x="1364" y="151" type="line"/>
      <point x="884" y="1115" type="line"/>
    </contour>
  </outline>
</glyph>
<glyph name="pi" format="1">
  <advance width="1617"/>
  <unicode hex="03C0"/>
  <outline>
    <contour>
      <point x="152" y="114" type="line"/>
      <point x="169" y="118"/>
      <point x="245" y="143"/>
      <point x="302" y="182" type="curve" smooth="yes"/>
      <point x="419" y="262"/>
      <point x="440" y="351"/>
      <point x="448" y="487" type="curve" smooth="yes"/>
      <point x="473" y="870" type="line"/>
      <point x="392" y="870" type="line"/>
      <point x="315" y="871"/>
      <point x="250" y="831"/>
      <point x="227" y="769" type="curve"/>
      <point x="100" y="792" type="line"/>
      <point x="96" y="812"/>
      <point x="101" y="853"/>
      <point x="114" y="889" type="curve" smooth="yes"/>
      <point x="165" y="1032"/>
      <point x="290" y="1118"/>
      <point x="427" y="1118" type="curve" smooth="yes"/>
      <point x="1158" y="1118" type="line" smooth="yes"/>
      <point x="1247" y="1118"/>
      <point x="1316" y="1144"/>
      <point x="1357" y="1225" type="curve"/>
      <point x="1484" y="1225" type="line"/>
      <point x="1472" y="1043"/>
      <point x="1368" y="878"/>
      <point x="1171" y="869" type="curve"/>
      <point x="1145" y="320" type="line"/>
      <point x="1141" y="212"/>
      <point x="1170" y="181"/>
      <point x="1197" y="181" type="curve" smooth="yes"/>
      <point x="1257" y="181"/>
      <point x="1321" y="225"/>
      <point x="1345" y="294" type="curve"/>
      <point x="1494" y="294" type="line"/>
      <point x="1462" y="163"/>
      <point x="1328" y="-18"/>
      <point x="1155" y="-18" type="curve" smooth="yes"/>
      <point x="972" y="-18"/>
      <point x="924" y="105"/>
      <point x="935" y="263" type="curve"/>
      <point x="992" y="869" type="line"/>
      <point x="651" y="869" type="line"/>
      <point x="641" y="430" type="line"/>
      <point x="628" y="201"/>
      <point x="596" y="136"/>
      <point x="504" y="52" type="curve" smooth="yes"/>
      <point x="465" y="16"/>
      <point x="406" y="-8"/>
      <point x="353" y="-24" type="curve"/>
    </contour>
  </outline>
</glyph>
<glyph name="endash" format="1">
  <advance width="1454"/>
  <unicode hex="2013"/>
  <outline>
    <contour>
      <point x="181" y="724" type="line"/>
      <point x="181" y="922" type="line"/>
      <point x="1273" y="922" type="line"/>
      <point x="1273" y="724" type="line"/>
    </contour>
  </outline>
</glyph>
<glyph name="quoteright" format="1">
  <advance width="858"/>
  <unicode hex="2019"/>
  <outline>
    <contour>
      <point x="279" y="848" type="curve"/>
      <point x="200" y="927" type="line"/>
      <point x="200" y="962" type="line"/>
      <point x="288" y="994"/>
      <point x="389" y="1137"/>
      <point x="389" y="1265" type="curve" smooth="yes"/>
      <point x="389" y="1360"/>
      <point x="316" y="1460"/>
      <point x="236" y="1468" type="curve"/>
      <point x="236" y="1531" type="line"/>
      <point x="416" y="1757" type="line"/>
      <point x="601" y="1699"/>
      <point x="663" y="1496"/>
      <point x="661" y="1374" type="curve" smooth="yes"/>
      <point x="657" y="1100"/>
      <point x="450" y="914"/>
    </contour>
  </outline>
</glyph>
<glyph name="quotedblright" format="1">
  <advance width="1446"/>
  <unicode hex="201D"/>
  <outline>
    <contour>
      <point x="867" y="846" type="curve"/>
      <point x="786" y="924" type="line"/>
      <point x="786" y="960" type="line"/>
      <point x="876" y="991"/>
      <point x="975" y="1135"/>
      <point x="975" y="1263" type="curve" smooth="yes"/>
      <point x="975" y="1358"/>
      <point x="904" y="1457"/>
      <point x="824" y="1465" type="curve"/>
      <point x="824" y="1529" type="line"/>
      <point x="1003" y="1755" type="line"/>
      <point x="1189" y="1697"/>
      <point x="1251" y="1494"/>
      <point x="1249" y="1371" type="curve" smooth="yes"/>
      <point x="1245" y="1097"/>
      <point x="1037" y="911"/>
    </contour>
    <contour>
      <point x="280" y="846" type="curve"/>
      <point x="200" y="924" type="line"/>
      <point x="200" y="960" type="line"/>
      <point x="289" y="991"/>
      <point x="389" y="1135"/>
      <point x="389" y="1263" type="curve" smooth="yes"/>
      <point x="389" y="1358"/>
      <point x="316" y="1457"/>
      <point x="237" y="1465" type="curve"/>
      <point x="237" y="1529" type="line"/>
      <point x="416" y="1755" type="line"/>
      <point x="601" y="1697"/>
      <point x="665" y="1494"/>
      <point x="662" y="1371" type="curve"/>
      <point x="658" y="1097"/>
      <point x="450" y="911"/>
    </contour>
  </outline>
</glyph>
<glyph name="guilsinglleft" format="1">
  <advance width="1242"/>
  <unicode hex="2039"/>
  <outline>
    <contour>
      <point x="236" y="485" type="line"/>
      <point x="236" y="729" type="line"/>
      <point x="935" y="1114" type="line"/>
      <point x="1006" y="1000" type="line"/>
      <point x="527" y="614" type="line"/>
      <point x="1006" y="245" type="line"/>
      <point x="935" y="122" type="line"/>
    </contour>
  </outline>
</glyph>
<glyph name="Euro" format="1">
  <advance width="1564"/>
  <unicode hex="20AC"/>
  <outline>
    <contour>
      <point x="32" y="542" type="line"/>
      <point x="32" y="692" type="line"/>
      <point x="218" y="692" type="line"/>
      <point x="218" y="718" type="line" smooth="yes"/>
      <point x="218" y="776"/>
      <point x="222" y="834"/>
      <point x="230" y="890" type="curve"/>
      <point x="62" y="890" type="line"/>
      <point x="62" y="1042" type="line"/>
      <point x="263" y="1042" type="line"/>
      <point x="352" y="1341"/>
      <point x="576" y="1567"/>
      <point x="964" y="1567" type="curve" smooth="yes"/>
      <point x="1172" y="1567"/>
      <point x="1302" y="1488"/>
      <point x="1404" y="1496" type="curve"/>
      <point x="1387" y="1156" type="line"/>
      <point x="1260" y="1156" type="line"/>
      <point x="1197" y="1336" type="line"/>
      <point x="1124" y="1389"/>
      <point x="1028" y="1414"/>
      <point x="906" y="1414" type="curve" smooth="yes"/>
      <point x="687" y="1414"/>
      <point x="586" y="1276"/>
      <point x="550" y="1042" type="curve"/>
      <point x="1047" y="1042" type="line"/>
      <point x="1047" y="890" type="line"/>
      <point x="535" y="890" type="line"/>
      <point x="533" y="853"/>
      <point x="533" y="815"/>
      <point x="533" y="775" type="curve" smooth="yes"/>
      <point x="533" y="747"/>
      <point x="533" y="719"/>
      <point x="534" y="692" type="curve"/>
      <point x="1024" y="692" type="line"/>
      <point x="1024" y="542" type="line"/>
      <point x="546" y="542" type="line"/>
      <point x="578" y="291"/>
      <point x="679" y="117"/>
      <point x="939" y="116" type="curve" smooth="yes"/>
      <point x="1049" y="115"/>
      <point x="1109" y="136"/>
      <point x="1168" y="178" type="curve"/>
      <point x="1223" y="231"/>
      <point x="1237" y="319"/>
      <point x="1260" y="393" type="curve"/>
      <point x="1308" y="393"/>
      <point x="1356" y="392"/>
      <point x="1404" y="392" type="curve"/>
      <point x="1404" y="63" type="line"/>
      <point x="1281" y="76"/>
      <point x="1197" y="-28"/>
      <point x="891" y="-28" type="curve" smooth="yes"/>
      <point x="524" y="-28"/>
      <point x="290" y="197"/>
      <point x="232" y="542" type="curve"/>
    </contour>
  </outline>
</glyph>
<glyph name="partialdiff" format="1">
  <advance width="1377"/>
  <unicode hex="2202"/>
  <outline>
    <contour>
      <point x="88" y="399" type="curve" smooth="yes"/>
      <point x="88" y="778"/>
      <point x="456" y="1052"/>
      <point x="829" y="1052" type="curve" smooth="yes"/>
      <point x="892" y="1052"/>
      <point x="955" y="1045"/>
      <point x="1016" y="1031" type="curve"/>
      <point x="992" y="1316"/>
      <point x="888" y="1565"/>
      <point x="554" y="1565" type="curve" smooth="yes"/>
      <point x="453" y="1565"/>
      <point x="356" y="1542"/>
      <point x="268" y="1488" type="curve"/>
      <point x="185" y="1596" type="line"/>
      <point x="315" y="1685"/>
      <point x="491" y="1736"/>
      <point x="658" y="1736" type="curve" smooth="yes"/>
      <point x="1117" y="1736"/>
      <point x="1271" y="1401"/>
      <point x="1271" y="998" type="curve" smooth="yes"/>
      <point x="1271" y="546"/>
      <point x="1106" y="-48"/>
      <point x="546" y="-48" type="curve" smooth="yes"/>
      <point x="261" y="-48"/>
      <point x="88" y="154"/>
    </contour>
    <contour>
      <point x="340" y="486" type="curve" smooth="yes"/>
      <point x="340" y="295"/>
      <point x="477" y="121"/>
      <point x="674" y="121" type="curve" smooth="yes"/>
      <point x="910" y="121"/>
      <point x="987" y="400"/>
      <point x="1011" y="639" type="curve" smooth="yes"/>
      <point x="1016" y="690"/>
      <point x="1019" y="739"/>
      <point x="1020" y="784" type="curve"/>
      <point x="933" y="846"/>
      <point x="829" y="883"/>
      <point x="719" y="883" type="curve" smooth="yes"/>
      <point x="520" y="883"/>
      <point x="340" y="755"/>
    </contour>
  </outline>
</glyph>
<glyph name="product" format="1">
  <advance width="1726"/>
  <unicode hex="220F"/>
  <outline>
    <contour>
      <point x="110" y="-61" type="line"/>
      <point x="289" y="-23" type="line"/>
      <point x="288" y="1396" type="line"/>
      <point x="106" y="1417" type="line"/>
      <point x="106" y="1552" type="line"/>
      <point x="1625" y="1552" type="line"/>
      <point x="1625" y="1417" type="line"/>
      <point x="1437" y="1397" type="line"/>
      <point x="1437" y="-23" type="line"/>
      <point x="1621" y="-62" type="line"/>
      <point x="1621" y="-177" type="line"/>
      <point x="966" y="-177" type="line"/>
      <point x="966" y="-62" type="line"/>
      <point x="1150" y="-24" type="line"/>
      <point x="1150" y="1414" type="line"/>
      <point x="576" y="1414" type="line"/>
      <point x="576" y="-23" type="line"/>
      <point x="755" y="-61" type="line"/>
      <point x="755" y="-177" type="line"/>
      <point x="110" y="-177" type="line"/>
    </contour>
  </outline>
</glyph>
<glyph name="summation" format="1">
  <advance width="1549"/>
  <unicode hex="2211"/>
  <outline>
    <contour>
      <point x="206" y="-72" type="line"/>
      <point x="729" y="655" type="line"/>
      <point x="206" y="1406" type="line"/>
      <point x="213" y="1553" type="line"/>
      <point x="1275" y="1553" type="line"/>
      <point x="1307" y="1218" type="line"/>
      <point x="1163" y="1218" type="line"/>
      <point x="1091" y="1410" type="line"/>
      <point x="508" y="1425" type="line"/>
      <point x="1019" y="705" type="line"/>
      <point x="460" y="-43" type="line"/>
      <point x="1112" y="-19" type="line"/>
      <point x="1222" y="186" type="line"/>
      <point x="1365" y="155" type="line"/>
      <point x="1314" y="-180" type="line"/>
      <point x="218" y="-179" type="line"/>
    </contour>
  </outline>
</glyph>
<glyph name="radical" format="1">
  <advance width="1773"/>
  <unicode hex="221A"/>
  <outline>
    <contour>
      <point x="224" y="436" type="line"/>
      <point x="134" y="579" type="line"/>
      <point x="315" y="708" type="line"/>
      <point x="569" y="708" type="line"/>
      <point x="865" y="-95" type="line"/>
      <point x="873" y="-95" type="line"/>
      <point x="1477" y="1920" type="line"/>
      <point x="1674" y="1920" type="line"/>
      <point x="966" y="-354" type="line"/>
      <point x="721" y="-354" type="line"/>
      <point x="350" y="528" type="line"/>
    </contour>
  </outline>
</glyph>
<glyph name="approxequal" format="1">
  <advance width="1344"/>
  <unicode hex="2248"/>
  <outline>
    <contour>
      <point x="255" y="912" type="curve"/>
      <point x="169" y="1022" type="line"/>
      <point x="203" y="1108"/>
      <point x="355" y="1243"/>
      <point x="512" y="1243" type="curve" smooth="yes"/>
      <point x="679" y="1243"/>
      <point x="731" y="1091"/>
      <point x="862" y="1091" type="curve" smooth="yes"/>
      <point x="955" y="1091"/>
      <point x="1034" y="1153"/>
      <point x="1077" y="1192" type="curve"/>
      <point x="1165" y="1082" type="line"/>
      <point x="1132" y="990"/>
      <point x="984" y="860"/>
      <point x="823" y="860" type="curve" smooth="yes"/>
      <point x="657" y="860"/>
      <point x="611" y="1013"/>
      <point x="470" y="1013" type="curve" smooth="yes"/>
      <point x="376" y="1013"/>
      <point x="300" y="951"/>
    </contour>
    <contour>
      <point x="261" y="410" type="curve"/>
      <point x="175" y="520" type="line"/>
      <point x="209" y="607"/>
      <point x="361" y="741"/>
      <point x="518" y="741" type="curve" smooth="yes"/>
      <point x="685" y="741"/>
      <point x="737" y="589"/>
      <point x="868" y="589" type="curve" smooth="yes"/>
      <point x="961" y="589"/>
      <point x="1040" y="652"/>
      <point x="1083" y="691" type="curve"/>
      <point x="1171" y="581" type="line"/>
      <point x="1138" y="489"/>
      <point x="990" y="358"/>
      <point x="829" y="358" type="curve" smooth="yes"/>
      <point x="663" y="358"/>
      <point x="617" y="511"/>
      <point x="476" y="511" type="curve" smooth="yes"/>
      <point x="382" y="511"/>
      <point x="306" y="449"/>
    </contour>
  </outline>
</glyph>
<glyph name="notequal" format="1">
  <advance width="1286"/>
  <unicode hex="2260"/>
  <outline>
    <contour>
      <point x="374" y="254" type="line"/>
      <point x="441" y="471" type="line"/>
      <point x="181" y="471" type="line"/>
      <point x="181" y="666" type="line"/>
      <point x="505" y="666" type="line"/>
      <point x="588" y="951" type="line"/>
      <point x="181" y="951" type="line"/>
      <point x="181" y="1145" type="line"/>
      <point x="652" y="1145" type="line"/>
      <point x="714" y="1339" type="line"/>
      <point x="914" y="1339" type="line"/>
      <point x="853" y="1145" type="line"/>
      <point x="1105" y="1145" type="line"/>
      <point x="1105" y="951" type="line"/>
      <point x="789" y="951" type="line"/>
      <point x="707" y="666" type="line"/>
      <point x="1105" y="666" type="line"/>
      <point x="1105" y="471" type="line"/>
      <point x="642" y="471" type="line"/>
      <point x="575" y="254" type="line"/>
    </contour>
  </outline>
</glyph>
<glyph name="greaterequal" format="1">
  <advance width="1333"/>
  <unicode hex="2265"/>
  <outline>
    <contour>
      <point x="184" y="508" type="line"/>
      <point x="184" y="744" type="line"/>
      <point x="809" y="975" type="line"/>
      <point x="184" y="1208" type="line"/>
      <point x="184" y="1443" type="line"/>
      <point x="1152" y="1032" type="line"/>
      <point x="1152" y="919" type="line"/>
    </contour>
    <contour>
      <point x="181" y="144" type="line"/>
      <point x="181" y="341" type="line"/>
      <point x="1141" y="341" type="line"/>
      <point x="1141" y="144" type="line"/>
    </contour>
  </outline>
</glyph>
<glyph name="lozenge" format="1">
  <advance width="1369"/>
  <unicode hex="25CA"/>
  <outline>
    <contour>
      <point x="558" y="0" type="line"/>
      <point x="159" y="660" type="line"/>
      <point x="159" y="752" type="line"/>
      <point x="579" y="1416" type="line"/>
      <point x="811" y="1416" type="line"/>
      <point x="1209" y="756" type="line"/>
      <point x="1209" y="664" type="line"/>
      <point x="789" y="0" type="line"/>
    </contour>
    <contour>
      <point x="701" y="187" type="line"/>
      <point x="996" y="665" type="line"/>
      <point x="665" y="1229" type="line"/>
      <point x="372" y="750" type="line"/>
    </contour>
  </outline>
</glyph>
<glyph name="ff" format="1">
  <advance width="1798"/>
  <unicode hex="FB00"/>
  <outline>
    <contour>
      <point x="987" y="0" type="line"/>
      <point x="987" y="114" type="line"/>
      <point x="1166" y="141" type="line"/>
      <point x="1166" y="944" type="line"/>
      <point x="967" y="944" type="line"/>
      <point x="967" y="1036" type="line"/>
      <point x="1166" y="1107" type="line"/>
      <point x="1166" y="1202" type="line" smooth="yes"/>
      <point x="1166" y="1464"/>
      <point x="1383" y="1714"/>
      <point x="1625" y="1714" type="curve" smooth="yes"/>
      <point x="1703" y="1714"/>
      <point x="1774" y="1704"/>
      <point x="1809" y="1689" type="curve"/>
      <point x="1809" y="1468" type="line"/>
      <point x="1789" y="1477"/>
      <point x="1695" y="1513"/>
      <point x="1602" y="1513" type="curve" smooth="yes"/>
      <point x="1506" y="1513"/>
      <point x="1450" y="1496"/>
      <point x="1450" y="1298" type="curve" smooth="yes"/>
      <point x="1450" y="1119" type="line"/>
      <point x="1751" y="1119" type="line"/>
      <point x="1751" y="944" type="line"/>
      <point x="1450" y="944" type="line"/>
      <point x="1450" y="139" type="line"/>
      <point x="1686" y="114" type="line"/>
      <point x="1686" y="0" type="line"/>
    </contour>
    <contour>
      <point x="88" y="0" type="line"/>
      <point x="88" y="114" type="line"/>
      <point x="267" y="141" type="line"/>
      <point x="267" y="944" type="line"/>
      <point x="68" y="944" type="line"/>
      <point x="68" y="1036" type="line"/>
      <point x="267" y="1107" type="line"/>
      <point x="267" y="1202" type="line" smooth="yes"/>
      <point x="267" y="1464"/>
      <point x="485" y="1714"/>
      <point x="726" y="1714" type="curve" smooth="yes"/>
      <point x="805" y="1714"/>
      <point x="876" y="1704"/>
      <point x="910" y="1689" type="curve"/>
      <point x="910" y="1468" type="line"/>
      <point x="890" y="1477"/>
      <point x="796" y="1513"/>
      <point x="704" y="1513" type="curve" smooth="yes"/>
      <point x="607" y="1513"/>
      <point x="551" y="1496"/>
      <point x="551" y="1298" type="curve" smooth="yes"/>
      <point x="551" y="1119" type="line"/>
      <point x="852" y="1119" type="line"/>
      <point x="852" y="944" type="line"/>
      <point x="551" y="944" type="line"/>
      <point x="551" y="139" type="line"/>
      <point x="787" y="114" type="line"/>
      <point x="787" y="0" type="line"/>
    </contour>
  </outline>
</glyph>
<glyph name="ffi" format="1">
  <advance width="2517"/>
  <unicode hex="FB03"/>
  <outline>
    <contour>
      <point x="987" y="0" type="line"/>
      <point x="987" y="114" type="line"/>
      <point x="1166" y="141" type="line"/>
      <point x="1166" y="944" type="line"/>
      <point x="967" y="944" type="line"/>
      <point x="967" y="1036" type="line"/>
      <point x="1166" y="1107" type="line"/>
      <point x="1166" y="1202" type="line" smooth="yes"/>
      <point x="1166" y="1464"/>
      <point x="1383" y="1714"/>
      <point x="1625" y="1714" type="curve" smooth="yes"/>
      <point x="1703" y="1714"/>
      <point x="1774" y="1704"/>
      <point x="1809" y="1689" type="curve"/>
      <point x="1809" y="1468" type="line"/>
      <point x="1789" y="1477"/>
      <point x="1695" y="1513"/>
      <point x="1602" y="1513" type="curve" smooth="yes"/>
      <point x="1506" y="1513"/>
      <point x="1450" y="1496"/>
      <point x="1450" y="1298" type="curve" smooth="yes"/>
      <point x="1450" y="1119" type="line"/>
      <point x="1751" y="1119" type="line"/>
      <point x="1751" y="944" type="line"/>
      <point x="1450" y="944" type="line"/>
      <point x="1450" y="139" type="line"/>
      <point x="1686" y="114" type="line"/>
      <point x="1686" y="0" type="line"/>
    </contour>
    <contour>
      <point x="88" y="0" type="line"/>
      <point x="88" y="114" type="line"/>
      <point x="267" y="141" type="line"/>
      <point x="267" y="944" type="line"/>
      <point x="68" y="944" type="line"/>
      <point x="68" y="1036" type="line"/>
      <point x="267" y="1107" type="line"/>
      <point x="267" y="1202" type="line" smooth="yes"/>
      <point x="267" y="1464"/>
      <point x="485" y="1714"/>
      <point x="726" y="1714" type="curve" smooth="yes"/>
      <point x="805" y="1714"/>
      <point x="876" y="1704"/>
      <point x="910" y="1689" type="curve"/>
      <point x="910" y="1468" type="line"/>
      <point x="890" y="1477"/>
      <point x="796" y="1513"/>
      <point x="704" y="1513" type="curve" smooth="yes"/>
      <point x="607" y="1513"/>
      <point x="551" y="1496"/>
      <point x="551" y="1298" type="curve" smooth="yes"/>
      <point x="551" y="1119" type="line"/>
      <point x="852" y="1119" type="line"/>
      <point x="852" y="944" type="line"/>
      <point x="551" y="944" type="line"/>
      <point x="551" y="139" type="line"/>
      <point x="787" y="114" type="line"/>
      <point x="787" y="0" type="line"/>
    </contour>
    <contour>
      <point x="1974" y="1506" type="curve" smooth="yes"/>
      <point x="1974" y="1615"/>
      <point x="2080" y="1697"/>
      <point x="2177" y="1697" type="curve" smooth="yes"/>
      <point x="2296" y="1697"/>
      <point x="2348" y="1624"/>
      <point x="2348" y="1536" type="curve" smooth="yes"/>
      <point x="2348" y="1421"/>
      <point x="2248" y="1347"/>
      <point x="2145" y="1347" type="curve" smooth="yes"/>
      <point x="2058" y="1347"/>
      <point x="1974" y="1407"/>
    </contour>
    <contour>
      <point x="1891" y="0" type="line"/>
      <point x="1891" y="114" type="line"/>
      <point x="2041" y="140" type="line"/>
      <point x="2041" y="846" type="line"/>
      <point x="1909" y="959" type="line"/>
      <point x="1909" y="1039" type="line"/>
      <point x="2253" y="1146" type="line"/>
      <point x="2321" y="1123" type="line"/>
      <point x="2321" y="138" type="line"/>
      <point x="2473" y="114" type="line"/>
      <point x="2473" y="0" type="line"/>
    </contour>
  </outline>
</glyph>
<glyph name=".notdef" format="1">
  <advance width="1770"/>
  <outline>
    <contour>
      <point x="177" y="-1" type="line"/>
      <point x="177" y="1416" type="line"/>
      <point x="1593" y="1416" type="line"/>
      <point x="1593" y="-1" type="line"/>
    </contour>
    <contour>
      <point x="392" y="392" type="line"/>
      <point x="564" y="206" type="line"/>
      <point x="880" y="564" type="line"/>
      <point x="1224" y="208" type="line"/>
      <point x="1381" y="365" type="line"/>
      <point x="1024" y="710" type="line"/>
      <point x="1384" y="1054" type="line"/>
      <point x="1218" y="1218" type="line"/>
      <point x="885" y="853" type="line"/>
      <point x="543" y="1213" type="line"/>
      <point x="384" y="1050" type="line"/>
      <point x="738" y="707" type="line"/>
    </contour>
  </outline>
</glyph>
<glyph name="acute.cap" format="1">
  <advance width="973"/>
  <outline>
    <contour>
      <point x="401" y="1599" type="curve"/>
      <point x="321" y="1683" type="line"/>
      <point x="676" y="1920" type="line"/>
      <point x="849" y="1747" type="line"/>
      <point x="731" y="1664"/>
      <point x="481" y="1607"/>
    </contour>
  </outline>
</glyph>
<glyph name="breve.cap" format="1">
  <advance width="661"/>
  <outline>
    <contour>
      <point x="331" y="1593" type="curve" smooth="yes"/>
      <point x="101" y="1593"/>
      <point x="-22" y="1757"/>
      <point x="-22" y="1920" type="curve"/>
      <point x="134" y="1920" type="line"/>
      <point x="146" y="1891"/>
      <point x="176" y="1770"/>
      <point x="332" y="1770" type="curve" smooth="yes"/>
      <point x="485" y="1770"/>
      <point x="518" y="1890"/>
      <point x="531" y="1920" type="curve"/>
      <point x="683" y="1920" type="line"/>
      <point x="683" y="1757"/>
      <point x="549" y="1593"/>
    </contour>
  </outline>
</glyph>
<glyph name="commabelow" format="1">
  <advance width="741"/>
  <outline>
    <contour>
      <point x="206" y="-178" type="line"/>
      <point x="334" y="-40" type="line"/>
      <point x="473" y="-56"/>
      <point x="572" y="-168"/>
      <point x="572" y="-310" type="curve" smooth="yes"/>
      <point x="572" y="-486"/>
      <point x="404" y="-616"/>
      <point x="320" y="-640" type="curve"/>
      <point x="223" y="-589" type="line"/>
      <point x="223" y="-566" type="line"/>
      <point x="273" y="-532"/>
      <point x="321" y="-464"/>
      <point x="321" y="-380" type="curve" smooth="yes"/>
      <point x="321" y="-307"/>
      <point x="260" y="-245"/>
      <point x="206" y="-245" type="curve"/>
    </contour>
  </outline>
</glyph>
<glyph name="grave.cap" format="1">
  <advance width="1062"/>
  <outline>
    <contour>
      <point x="560" y="1599" type="line"/>
      <point x="481" y="1607"/>
      <point x="242" y="1664"/>
      <point x="124" y="1747" type="curve"/>
      <point x="297" y="1920" type="line"/>
      <point x="641" y="1683" type="line"/>
    </contour>
  </outline>
</glyph>
<glyph name="hungarumlaut.cap" format="1">
  <advance width="920"/>
  <outline>
    <contour>
      <point x="609" y="1498" type="curve"/>
      <point x="537" y="1570" type="line"/>
      <point x="829" y="1920" type="line"/>
      <point x="1014" y="1747" type="line"/>
      <point x="888" y="1598"/>
      <point x="692" y="1523"/>
    </contour>
    <contour>
      <point x="101" y="1498" type="curve"/>
      <point x="28" y="1570" type="line"/>
      <point x="321" y="1920" type="line"/>
      <point x="504" y="1747" type="line"/>
      <point x="378" y="1598"/>
      <point x="183" y="1523"/>
    </contour>
  </outline>
</glyph>
<glyph name="ogonek.cap" format="1">
  <advance width="743"/>
  <outline>
    <contour>
      <point x="194" y="0" type="curve"/>
      <point x="286" y="6" type="line"/>
      <point x="397" y="0" type="line"/>
      <point x="263" y="-40"/>
      <point x="126" y="-165"/>
      <point x="116" y="-230" type="curve"/>
      <point x="98" y="-314"/>
      <point x="139" y="-341"/>
      <point x="205" y="-342" type="curve" smooth="yes"/>
      <point x="257" y="-343"/>
      <point x="325" y="-320"/>
      <point x="373" y="-298" type="curve"/>
      <point x="403" y="-412" type="line"/>
      <point x="316" y="-485"/>
      <point x="190" y="-519"/>
      <point x="56" y="-519" type="curve" smooth="yes"/>
      <point x="-78" y="-519"/>
      <point x="-148" y="-437"/>
      <point x="-151" y="-343" type="curve"/>
      <point x="-153" y="-240"/>
      <point x="-12" y="-74"/>
    </contour>
  </outline>
</glyph>
